<?xml version="1.0" encoding="utf-8" standalone="no"?>
<!DOCTYPE svg PUBLIC "-//W3C//DTD SVG 1.1//EN"
  "http://www.w3.org/Graphics/SVG/1.1/DTD/svg11.dtd">
<!-- Created with matplotlib (http://matplotlib.org/) -->
<svg height="504pt" version="1.1" viewBox="0 0 504 504" width="504pt" xmlns="http://www.w3.org/2000/svg" xmlns:xlink="http://www.w3.org/1999/xlink">
 <defs>
  <style type="text/css">
*{stroke-linecap:butt;stroke-linejoin:round;stroke-miterlimit:100000;}
  </style>
 </defs>
 <g id="figure_1">
  <g id="patch_1">
   <path d="M 0 504 
L 504 504 
L 504 0 
L 0 0 
z
" style="fill:#ffffff;"/>
  </g>
  <g id="axes_1">
   <g id="patch_2">
    <path d="M 63 441 
L 453.6 441 
L 453.6 50.4 
L 63 50.4 
z
" style="fill:#ffffff;"/>
   </g>
   <g id="line2d_1">
    <path clip-path="url(#pfa77c4b417)" d="M 63 148.05 
L 66.945455 148.05 
L 70.890909 148.05 
L 74.836364 148.05 
L 78.781818 148.05 
L 82.727273 148.05 
L 86.672727 148.05 
L 90.618182 148.05 
L 94.563636 148.05 
L 98.509091 148.05 
L 102.454545 148.05 
L 106.4 148.05 
L 110.345455 148.05 
L 114.290909 148.05 
L 118.236364 148.05 
L 122.181818 148.05 
L 126.127273 148.05 
L 130.072727 148.05 
L 134.018182 148.05 
L 137.963636 148.05 
L 141.909091 148.05 
L 145.854545 148.05 
L 149.8 148.05 
L 153.745455 148.05 
L 157.690909 148.05 
L 161.636364 148.05 
L 165.581818 148.05 
L 169.527273 148.05 
L 173.472727 148.05 
L 177.418182 148.05 
L 181.363636 148.05 
L 185.309091 148.05 
L 189.254545 148.05 
L 193.2 148.05 
L 197.145455 148.05 
L 201.090909 148.05 
L 205.036364 148.05 
L 208.981818 148.05 
L 212.927273 148.05 
L 216.872727 148.05 
L 220.818182 148.05 
L 224.763636 148.05 
L 228.709091 148.05 
L 232.654545 148.05 
L 236.6 148.05 
L 240.545455 148.05 
L 244.490909 148.05 
L 248.436364 148.05 
L 252.381818 148.05 
L 256.327273 148.05 
L 260.272727 148.05 
L 264.218182 148.05 
L 268.163636 148.05 
L 272.109091 148.05 
L 276.054545 148.05 
L 280 148.05 
L 283.945455 148.05 
L 287.890909 148.05 
L 291.836364 148.05 
L 295.781818 148.05 
L 299.727273 148.05 
L 303.672727 148.05 
L 307.618182 148.05 
L 311.563636 148.05 
L 315.509091 148.05 
L 319.454545 148.05 
L 323.4 148.05 
L 327.345455 148.05 
L 331.290909 148.05 
L 335.236364 148.05 
L 339.181818 148.05 
L 343.127273 148.05 
L 347.072727 148.05 
L 351.018182 148.05 
L 354.963636 148.05 
L 358.909091 148.05 
L 362.854545 148.05 
L 366.8 148.05 
L 370.745455 148.05 
L 374.690909 148.05 
L 378.636364 148.05 
L 382.581818 148.05 
L 386.527273 148.05 
L 390.472727 148.05 
L 394.418182 148.05 
L 398.363636 148.05 
L 402.309091 148.05 
L 406.254545 148.05 
L 410.2 148.05 
L 414.145455 148.05 
L 418.090909 148.05 
L 422.036364 148.05 
L 425.981818 148.05 
L 429.927273 148.05 
L 433.872727 148.05 
L 437.818182 148.05 
L 441.763636 148.05 
L 445.709091 148.05 
L 449.654545 148.05 
L 453.6 148.05 
" style="fill:none;stroke:#ff0000;stroke-linecap:square;stroke-width:3.0;"/>
   </g>
   <g id="line2d_2">
    <path clip-path="url(#pfa77c4b417)" d="M 63 372.645 
L 66.945455 370.080455 
L 70.890909 367.515909 
L 74.836364 364.951364 
L 78.781818 362.386818 
L 82.727273 359.822273 
L 86.672727 357.257727 
L 90.618182 354.693182 
L 94.563636 352.128636 
L 98.509091 349.564091 
L 102.454545 346.999545 
L 106.4 344.435 
L 110.345455 341.870455 
L 114.290909 339.305909 
L 118.236364 336.741364 
L 122.181818 334.176818 
L 126.127273 331.612273 
L 130.072727 329.047727 
L 134.018182 326.483182 
L 137.963636 323.918636 
L 141.909091 321.354091 
L 145.854545 318.789545 
L 149.8 316.225 
L 153.745455 313.660455 
L 157.690909 311.095909 
L 161.636364 308.531364 
L 165.581818 305.966818 
L 169.527273 303.402273 
L 173.472727 300.837727 
L 177.418182 298.273182 
L 181.363636 295.708636 
L 185.309091 293.144091 
L 189.254545 290.579545 
L 193.2 288.015 
L 197.145455 285.450455 
L 201.090909 282.885909 
L 205.036364 280.321364 
L 208.981818 277.756818 
L 212.927273 275.192273 
L 216.872727 272.627727 
L 220.818182 270.063182 
L 224.763636 267.498636 
L 228.709091 264.934091 
L 232.654545 262.369545 
L 236.6 259.805 
L 240.545455 257.240455 
L 244.490909 254.675909 
L 248.436364 252.111364 
L 252.381818 249.546818 
L 256.327273 246.982273 
L 260.272727 244.417727 
L 264.218182 241.853182 
L 268.163636 239.288636 
L 272.109091 236.724091 
L 276.054545 234.159545 
L 280 231.595 
L 283.945455 229.030455 
L 287.890909 226.465909 
L 291.836364 223.901364 
L 295.781818 221.336818 
L 299.727273 218.772273 
L 303.672727 216.207727 
L 307.618182 213.643182 
L 311.563636 211.078636 
L 315.509091 208.514091 
L 319.454545 205.949545 
L 323.4 203.385 
L 327.345455 200.820455 
L 331.290909 198.255909 
L 335.236364 195.691364 
L 339.181818 193.126818 
L 343.127273 190.562273 
L 347.072727 187.997727 
L 351.018182 185.433182 
L 354.963636 182.868636 
L 358.909091 180.304091 
L 362.854545 177.739545 
L 366.8 175.175 
L 370.745455 172.610455 
L 374.690909 170.045909 
L 378.636364 167.481364 
L 382.581818 164.916818 
L 386.527273 162.352273 
L 390.472727 159.787727 
L 394.418182 157.223182 
L 398.363636 154.658636 
L 402.309091 152.094091 
L 406.254545 149.529545 
L 410.2 146.965 
L 414.145455 144.400455 
L 418.090909 141.835909 
L 422.036364 139.271364 
L 425.981818 136.706818 
L 429.927273 134.142273 
L 433.872727 131.577727 
L 437.818182 129.013182 
L 441.763636 126.448636 
L 445.709091 123.884091 
L 449.654545 121.319545 
L 453.6 118.755 
" style="fill:none;stroke:#ff00ff;stroke-linecap:square;stroke-width:3.0;"/>
   </g>
   <g id="line2d_3">
    <path clip-path="url(#pfa77c4b417)" d="M 63 80.6715 
L 66.945455 87.271966 
L 70.890909 93.73773 
L 74.836364 100.068789 
L 78.781818 106.265146 
L 82.727273 112.326798 
L 86.672727 118.253748 
L 90.618182 124.045994 
L 94.563636 129.703537 
L 98.509091 135.226376 
L 102.454545 140.614512 
L 106.4 145.867944 
L 110.345455 150.986674 
L 114.290909 155.970699 
L 118.236364 160.820022 
L 122.181818 165.53464 
L 126.127273 170.114556 
L 130.072727 174.559768 
L 134.018182 178.870277 
L 137.963636 183.046082 
L 141.909091 187.087184 
L 145.854545 190.993583 
L 149.8 194.765278 
L 153.745455 198.40227 
L 157.690909 201.904558 
L 161.636364 205.272143 
L 165.581818 208.505024 
L 169.527273 211.603202 
L 173.472727 214.566677 
L 177.418182 217.395449 
L 181.363636 220.089517 
L 185.309091 222.648881 
L 189.254545 225.073542 
L 193.2 227.3635 
L 197.145455 229.518754 
L 201.090909 231.539305 
L 205.036364 233.425153 
L 208.981818 235.176297 
L 212.927273 236.792738 
L 216.872727 238.274475 
L 220.818182 239.621509 
L 224.763636 240.83384 
L 228.709091 241.911467 
L 232.654545 242.854391 
L 236.6 243.662611 
L 240.545455 244.336128 
L 244.490909 244.874942 
L 248.436364 245.279052 
L 252.381818 245.548459 
L 256.327273 245.683162 
L 260.272727 245.683162 
L 264.218182 245.548459 
L 268.163636 245.279052 
L 272.109091 244.874942 
L 276.054545 244.336128 
L 280 243.662611 
L 283.945455 242.854391 
L 287.890909 241.911467 
L 291.836364 240.83384 
L 295.781818 239.621509 
L 299.727273 238.274475 
L 303.672727 236.792738 
L 307.618182 235.176297 
L 311.563636 233.425153 
L 315.509091 231.539305 
L 319.454545 229.518754 
L 323.4 227.3635 
L 327.345455 225.073542 
L 331.290909 222.648881 
L 335.236364 220.089517 
L 339.181818 217.395449 
L 343.127273 214.566677 
L 347.072727 211.603202 
L 351.018182 208.505024 
L 354.963636 205.272143 
L 358.909091 201.904558 
L 362.854545 198.40227 
L 366.8 194.765278 
L 370.745455 190.993583 
L 374.690909 187.087184 
L 378.636364 183.046082 
L 382.581818 178.870277 
L 386.527273 174.559768 
L 390.472727 170.114556 
L 394.418182 165.53464 
L 398.363636 160.820022 
L 402.309091 155.970699 
L 406.254545 150.986674 
L 410.2 145.867944 
L 414.145455 140.614512 
L 418.090909 135.226376 
L 422.036364 129.703537 
L 425.981818 124.045994 
L 429.927273 118.253748 
L 433.872727 112.326798 
L 437.818182 106.265146 
L 441.763636 100.068789 
L 445.709091 93.73773 
L 449.654545 87.271966 
L 453.6 80.6715 
" style="fill:none;stroke:#0000ff;stroke-linecap:square;stroke-width:3.0;"/>
   </g>
   <g id="patch_3">
    <path d="M 63 50.4 
L 453.6 50.4 
" style="fill:none;stroke:#000000;stroke-linecap:square;stroke-linejoin:miter;"/>
   </g>
   <g id="patch_4">
    <path d="M 453.6 441 
L 453.6 50.4 
" style="fill:none;stroke:#000000;stroke-linecap:square;stroke-linejoin:miter;"/>
   </g>
   <g id="patch_5">
    <path d="M 63 441 
L 453.6 441 
" style="fill:none;stroke:#000000;stroke-linecap:square;stroke-linejoin:miter;"/>
   </g>
   <g id="patch_6">
    <path d="M 63 441 
L 63 50.4 
" style="fill:none;stroke:#000000;stroke-linecap:square;stroke-linejoin:miter;"/>
   </g>
   <g id="matplotlib.axis_1">
    <g id="xtick_1">
     <g id="line2d_4">
      <defs>
       <path d="M 0 0 
L 0 -4 
" id="m7b79426053" style="stroke:#000000;stroke-width:0.5;"/>
      </defs>
      <g>
       <use style="stroke:#000000;stroke-width:0.5;" x="108.069230769" xlink:href="#m7b79426053" y="441.0"/>
      </g>
     </g>
     <g id="line2d_5">
      <defs>
       <path d="M 0 0 
L 0 4 
" id="m0e73795846" style="stroke:#000000;stroke-width:0.5;"/>
      </defs>
      <g>
       <use style="stroke:#000000;stroke-width:0.5;" x="108.069230769" xlink:href="#m0e73795846" y="50.4"/>
      </g>
     </g>
     <g id="text_1">
      <!-- −1 -->
      <defs>
       <path d="M 10.59375 35.5 
L 73.1875 35.5 
L 73.1875 27.203125 
L 10.59375 27.203125 
z
" id="BitstreamVeraSans-Roman-2212"/>
       <path d="M 12.40625 8.296875 
L 28.515625 8.296875 
L 28.515625 63.921875 
L 10.984375 60.40625 
L 10.984375 69.390625 
L 28.421875 72.90625 
L 38.28125 72.90625 
L 38.28125 8.296875 
L 54.390625 8.296875 
L 54.390625 0 
L 12.40625 0 
z
" id="BitstreamVeraSans-Roman-31"/>
      </defs>
      <g transform="translate(100.698137019 452.5984375)scale(0.1 -0.1)">
       <use xlink:href="#BitstreamVeraSans-Roman-2212"/>
       <use x="83.7890625" xlink:href="#BitstreamVeraSans-Roman-31"/>
      </g>
     </g>
    </g>
    <g id="xtick_2">
     <g id="line2d_6">
      <g>
       <use style="stroke:#000000;stroke-width:0.5;" x="258.3" xlink:href="#m7b79426053" y="441.0"/>
      </g>
     </g>
     <g id="line2d_7">
      <g>
       <use style="stroke:#000000;stroke-width:0.5;" x="258.3" xlink:href="#m0e73795846" y="50.4"/>
      </g>
     </g>
     <g id="text_2">
      <!-- 0 -->
      <defs>
       <path d="M 31.78125 66.40625 
Q 24.171875 66.40625 20.328125 58.90625 
Q 16.5 51.421875 16.5 36.375 
Q 16.5 21.390625 20.328125 13.890625 
Q 24.171875 6.390625 31.78125 6.390625 
Q 39.453125 6.390625 43.28125 13.890625 
Q 47.125 21.390625 47.125 36.375 
Q 47.125 51.421875 43.28125 58.90625 
Q 39.453125 66.40625 31.78125 66.40625 
M 31.78125 74.21875 
Q 44.046875 74.21875 50.515625 64.515625 
Q 56.984375 54.828125 56.984375 36.375 
Q 56.984375 17.96875 50.515625 8.265625 
Q 44.046875 -1.421875 31.78125 -1.421875 
Q 19.53125 -1.421875 13.0625 8.265625 
Q 6.59375 17.96875 6.59375 36.375 
Q 6.59375 54.828125 13.0625 64.515625 
Q 19.53125 74.21875 31.78125 74.21875 
" id="BitstreamVeraSans-Roman-30"/>
      </defs>
      <g transform="translate(255.11875 452.5984375)scale(0.1 -0.1)">
       <use xlink:href="#BitstreamVeraSans-Roman-30"/>
      </g>
     </g>
    </g>
    <g id="xtick_3">
     <g id="line2d_8">
      <g>
       <use style="stroke:#000000;stroke-width:0.5;" x="408.530769231" xlink:href="#m7b79426053" y="441.0"/>
      </g>
     </g>
     <g id="line2d_9">
      <g>
       <use style="stroke:#000000;stroke-width:0.5;" x="408.530769231" xlink:href="#m0e73795846" y="50.4"/>
      </g>
     </g>
     <g id="text_3">
      <!-- 1 -->
      <g transform="translate(405.349519231 452.5984375)scale(0.1 -0.1)">
       <use xlink:href="#BitstreamVeraSans-Roman-31"/>
      </g>
     </g>
    </g>
    <g id="text_4">
     <!-- $x$ -->
     <defs>
      <path d="M 7.8125 2.875 
Q 9.578125 1.515625 12.796875 1.515625 
Q 15.921875 1.515625 18.3125 4.515625 
Q 20.703125 7.515625 21.578125 11.078125 
L 26.125 28.8125 
Q 27.203125 33.640625 27.203125 35.40625 
Q 27.203125 37.890625 25.8125 39.75 
Q 24.421875 41.609375 21.921875 41.609375 
Q 18.75 41.609375 15.96875 39.625 
Q 13.1875 37.640625 11.28125 34.59375 
Q 9.375 31.546875 8.59375 28.421875 
Q 8.40625 27.78125 7.8125 27.78125 
L 6.59375 27.78125 
Q 5.8125 27.78125 5.8125 28.71875 
L 5.8125 29 
Q 6.78125 32.71875 9.125 36.25 
Q 11.46875 39.796875 14.859375 41.984375 
Q 18.265625 44.1875 22.125 44.1875 
Q 25.78125 44.1875 28.734375 42.234375 
Q 31.6875 40.28125 32.90625 36.921875 
Q 34.625 39.984375 37.28125 42.078125 
Q 39.9375 44.1875 43.109375 44.1875 
Q 45.265625 44.1875 47.5 43.421875 
Q 49.75 42.671875 51.171875 41.109375 
Q 52.59375 39.546875 52.59375 37.203125 
Q 52.59375 34.671875 50.953125 32.828125 
Q 49.3125 31 46.78125 31 
Q 45.171875 31 44.09375 32.03125 
Q 43.015625 33.0625 43.015625 34.625 
Q 43.015625 36.71875 44.453125 38.296875 
Q 45.90625 39.890625 47.90625 40.1875 
Q 46.09375 41.609375 42.921875 41.609375 
Q 39.703125 41.609375 37.328125 38.625 
Q 34.96875 35.640625 33.984375 31.984375 
L 29.59375 14.3125 
Q 28.515625 10.296875 28.515625 7.71875 
Q 28.515625 5.171875 29.953125 3.34375 
Q 31.390625 1.515625 33.796875 1.515625 
Q 38.484375 1.515625 42.15625 5.640625 
Q 45.84375 9.765625 47.015625 14.703125 
Q 47.21875 15.28125 47.796875 15.28125 
L 49.03125 15.28125 
Q 49.421875 15.28125 49.65625 15.015625 
Q 49.90625 14.75 49.90625 14.40625 
Q 49.90625 14.3125 49.8125 14.109375 
Q 48.390625 8.15625 43.84375 3.515625 
Q 39.3125 -1.125 33.59375 -1.125 
Q 29.9375 -1.125 26.984375 0.84375 
Q 24.03125 2.828125 22.796875 6.203125 
Q 21.234375 3.265625 18.46875 1.0625 
Q 15.71875 -1.125 12.59375 -1.125 
Q 10.453125 -1.125 8.171875 -0.359375 
Q 5.90625 0.390625 4.484375 1.953125 
Q 3.078125 3.515625 3.078125 5.90625 
Q 3.078125 8.25 4.703125 10.171875 
Q 6.34375 12.109375 8.796875 12.109375 
Q 10.453125 12.109375 11.578125 11.109375 
Q 12.703125 10.109375 12.703125 8.5 
Q 12.703125 6.390625 11.296875 4.828125 
Q 9.90625 3.265625 7.8125 2.875 
" id="Cmmi10-78"/>
     </defs>
     <g transform="translate(252.5 474.875)scale(0.2 -0.2)">
      <use transform="translate(0.0 0.8125)" xlink:href="#Cmmi10-78"/>
     </g>
    </g>
   </g>
   <g id="matplotlib.axis_2">
    <g id="ytick_1">
     <g id="line2d_10">
      <defs>
       <path d="M 0 0 
L 4 0 
" id="mff93cb04dc" style="stroke:#000000;stroke-width:0.5;"/>
      </defs>
      <g>
       <use style="stroke:#000000;stroke-width:0.5;" x="63.0" xlink:href="#mff93cb04dc" y="441.0"/>
      </g>
     </g>
     <g id="line2d_11">
      <defs>
       <path d="M 0 0 
L -4 0 
" id="m841831e223" style="stroke:#000000;stroke-width:0.5;"/>
      </defs>
      <g>
       <use style="stroke:#000000;stroke-width:0.5;" x="453.6" xlink:href="#m841831e223" y="441.0"/>
      </g>
     </g>
     <g id="text_5">
      <!-- −2 -->
      <defs>
       <path d="M 19.1875 8.296875 
L 53.609375 8.296875 
L 53.609375 0 
L 7.328125 0 
L 7.328125 8.296875 
Q 12.9375 14.109375 22.625 23.890625 
Q 32.328125 33.6875 34.8125 36.53125 
Q 39.546875 41.84375 41.421875 45.53125 
Q 43.3125 49.21875 43.3125 52.78125 
Q 43.3125 58.59375 39.234375 62.25 
Q 35.15625 65.921875 28.609375 65.921875 
Q 23.96875 65.921875 18.8125 64.3125 
Q 13.671875 62.703125 7.8125 59.421875 
L 7.8125 69.390625 
Q 13.765625 71.78125 18.9375 73 
Q 24.125 74.21875 28.421875 74.21875 
Q 39.75 74.21875 46.484375 68.546875 
Q 53.21875 62.890625 53.21875 53.421875 
Q 53.21875 48.921875 51.53125 44.890625 
Q 49.859375 40.875 45.40625 35.40625 
Q 44.1875 33.984375 37.640625 27.21875 
Q 31.109375 20.453125 19.1875 8.296875 
" id="BitstreamVeraSans-Roman-32"/>
      </defs>
      <g transform="translate(44.2578125 443.759375)scale(0.1 -0.1)">
       <use xlink:href="#BitstreamVeraSans-Roman-2212"/>
       <use x="83.7890625" xlink:href="#BitstreamVeraSans-Roman-32"/>
      </g>
     </g>
    </g>
    <g id="ytick_2">
     <g id="line2d_12">
      <g>
       <use style="stroke:#000000;stroke-width:0.5;" x="63.0" xlink:href="#mff93cb04dc" y="343.35"/>
      </g>
     </g>
     <g id="line2d_13">
      <g>
       <use style="stroke:#000000;stroke-width:0.5;" x="453.6" xlink:href="#m841831e223" y="343.35"/>
      </g>
     </g>
     <g id="text_6">
      <!-- −1 -->
      <g transform="translate(44.2578125 346.109375)scale(0.1 -0.1)">
       <use xlink:href="#BitstreamVeraSans-Roman-2212"/>
       <use x="83.7890625" xlink:href="#BitstreamVeraSans-Roman-31"/>
      </g>
     </g>
    </g>
    <g id="ytick_3">
     <g id="line2d_14">
      <g>
       <use style="stroke:#000000;stroke-width:0.5;" x="63.0" xlink:href="#mff93cb04dc" y="245.7"/>
      </g>
     </g>
     <g id="line2d_15">
      <g>
       <use style="stroke:#000000;stroke-width:0.5;" x="453.6" xlink:href="#m841831e223" y="245.7"/>
      </g>
     </g>
     <g id="text_7">
      <!-- 0 -->
      <g transform="translate(52.6375 248.459375)scale(0.1 -0.1)">
       <use xlink:href="#BitstreamVeraSans-Roman-30"/>
      </g>
     </g>
    </g>
    <g id="ytick_4">
     <g id="line2d_16">
      <g>
       <use style="stroke:#000000;stroke-width:0.5;" x="63.0" xlink:href="#mff93cb04dc" y="148.05"/>
      </g>
     </g>
     <g id="line2d_17">
      <g>
       <use style="stroke:#000000;stroke-width:0.5;" x="453.6" xlink:href="#m841831e223" y="148.05"/>
      </g>
     </g>
     <g id="text_8">
      <!-- 1 -->
      <g transform="translate(52.6375 150.809375)scale(0.1 -0.1)">
       <use xlink:href="#BitstreamVeraSans-Roman-31"/>
      </g>
     </g>
    </g>
    <g id="ytick_5">
     <g id="line2d_18">
      <g>
       <use style="stroke:#000000;stroke-width:0.5;" x="63.0" xlink:href="#mff93cb04dc" y="50.4"/>
      </g>
     </g>
     <g id="line2d_19">
      <g>
       <use style="stroke:#000000;stroke-width:0.5;" x="453.6" xlink:href="#m841831e223" y="50.4"/>
      </g>
     </g>
     <g id="text_9">
      <!-- 2 -->
      <g transform="translate(52.6375 53.159375)scale(0.1 -0.1)">
       <use xlink:href="#BitstreamVeraSans-Roman-32"/>
      </g>
     </g>
    </g>
    <g id="text_10">
     <!-- $\phi(x)$ -->
     <defs>
      <path d="M 31 -24.8125 
Q 25.4375 -20.40625 21.40625 -14.71875 
Q 17.390625 -9.03125 14.8125 -2.578125 
Q 12.25 3.859375 10.984375 10.890625 
Q 9.71875 17.921875 9.71875 25 
Q 9.71875 32.171875 10.984375 39.203125 
Q 12.25 46.234375 14.859375 52.734375 
Q 17.484375 59.234375 21.53125 64.890625 
Q 25.59375 70.5625 31 74.8125 
Q 31 75 31.5 75 
L 32.421875 75 
Q 32.71875 75 32.953125 74.734375 
Q 33.203125 74.46875 33.203125 74.125 
Q 33.203125 73.6875 33.015625 73.484375 
Q 28.125 68.703125 24.875 63.234375 
Q 21.625 57.765625 19.640625 51.578125 
Q 17.671875 45.40625 16.796875 38.78125 
Q 15.921875 32.171875 15.921875 25 
Q 15.921875 -6.78125 32.90625 -23.296875 
Q 33.203125 -23.578125 33.203125 -24.125 
Q 33.203125 -24.359375 32.9375 -24.671875 
Q 32.671875 -25 32.421875 -25 
L 31.5 -25 
Q 31 -25 31 -24.8125 
" id="Cmr10-28"/>
      <path d="M 6.5 -25 
Q 5.609375 -25 5.609375 -24.125 
Q 5.609375 -23.6875 5.8125 -23.484375 
Q 22.90625 -6.78125 22.90625 25 
Q 22.90625 56.78125 6 73.296875 
Q 5.609375 73.53125 5.609375 74.125 
Q 5.609375 74.46875 5.875 74.734375 
Q 6.15625 75 6.5 75 
L 7.421875 75 
Q 7.71875 75 7.90625 74.8125 
Q 15.09375 69.140625 19.875 61.03125 
Q 24.65625 52.9375 26.875 43.75 
Q 29.109375 34.578125 29.109375 25 
Q 29.109375 17.921875 27.90625 11.0625 
Q 26.703125 4.203125 24.09375 -2.453125 
Q 21.484375 -9.125 17.484375 -14.765625 
Q 13.484375 -20.40625 7.90625 -24.8125 
Q 7.71875 -25 7.421875 -25 
z
" id="Cmr10-29"/>
      <path d="M 19.390625 -19.484375 
L 23.875 -1.421875 
Q 18.796875 -1.421875 14.40625 0.953125 
Q 10.015625 3.328125 7.34375 7.5625 
Q 4.6875 11.8125 4.6875 16.796875 
Q 4.6875 22.21875 7.375 27.140625 
Q 10.0625 32.078125 14.71875 36.109375 
Q 19.390625 40.140625 24.75 42.3125 
Q 30.125 44.484375 35.40625 44.484375 
L 41.40625 68.796875 
Q 41.609375 69.390625 42.1875 69.390625 
L 43.40625 69.390625 
Q 43.796875 69.390625 44.03125 69.046875 
Q 44.28125 68.703125 44.28125 68.40625 
L 38.28125 44.484375 
Q 42.046875 44.484375 45.5625 43.109375 
Q 49.078125 41.75 51.78125 39.28125 
Q 54.5 36.8125 56 33.46875 
Q 57.515625 30.125 57.515625 26.3125 
Q 57.515625 20.90625 54.828125 15.96875 
Q 52.15625 11.03125 47.609375 7.078125 
Q 43.0625 3.125 37.46875 0.84375 
Q 31.890625 -1.421875 26.8125 -1.421875 
L 22.21875 -19.921875 
Q 22.015625 -20.515625 21.390625 -20.515625 
L 20.21875 -20.515625 
Q 19.828125 -20.515625 19.609375 -20.140625 
Q 19.390625 -19.78125 19.390625 -19.484375 
M 24.515625 1.21875 
L 34.71875 41.890625 
Q 32.171875 41.890625 29.390625 40.859375 
Q 26.609375 39.84375 24.140625 38.28125 
Q 21.6875 36.71875 19.671875 34.71875 
Q 17.234375 32.28125 15.375 28.953125 
Q 13.53125 25.640625 12.578125 21.953125 
Q 11.625 18.265625 11.625 14.703125 
Q 11.625 10.9375 13.234375 7.859375 
Q 14.84375 4.78125 17.765625 3 
Q 20.703125 1.21875 24.515625 1.21875 
M 27.484375 1.21875 
Q 31.25 1.21875 35.5 3.359375 
Q 39.75 5.515625 42.484375 8.40625 
Q 46.234375 12.109375 48.40625 17.5 
Q 50.59375 22.90625 50.59375 28.421875 
Q 50.59375 32.125 48.96875 35.21875 
Q 47.359375 38.328125 44.421875 40.109375 
Q 41.5 41.890625 37.703125 41.890625 
z
" id="Cmmi10-c1"/>
     </defs>
     <g transform="translate(34.2578125 265.2)rotate(-90.0)scale(0.2 -0.2)">
      <use xlink:href="#Cmmi10-c1"/>
      <use transform="translate(59.521484375 0.0)" xlink:href="#Cmr10-28"/>
      <use transform="translate(98.33984375 0.0)" xlink:href="#Cmmi10-78"/>
      <use transform="translate(155.419921875 0.0)" xlink:href="#Cmr10-29"/>
     </g>
    </g>
   </g>
   <g id="text_11">
    <!-- $\phi(x) = 1$ -->
    <defs>
     <path d="M 9.28125 0 
L 9.28125 3.515625 
Q 21.78125 3.515625 21.78125 6.6875 
L 21.78125 59.1875 
Q 16.609375 56.6875 8.6875 56.6875 
L 8.6875 60.203125 
Q 20.953125 60.203125 27.203125 66.609375 
L 28.609375 66.609375 
Q 28.953125 66.609375 29.265625 66.328125 
Q 29.59375 66.0625 29.59375 65.71875 
L 29.59375 6.6875 
Q 29.59375 3.515625 42.09375 3.515625 
L 42.09375 0 
z
" id="Cmr10-31"/>
     <path d="M 7.515625 13.28125 
Q 6.6875 13.28125 6.140625 13.90625 
Q 5.609375 14.546875 5.609375 15.28125 
Q 5.609375 16.109375 6.140625 16.6875 
Q 6.6875 17.28125 7.515625 17.28125 
L 70.3125 17.28125 
Q 71.046875 17.28125 71.578125 16.6875 
Q 72.125 16.109375 72.125 15.28125 
Q 72.125 14.546875 71.578125 13.90625 
Q 71.046875 13.28125 70.3125 13.28125 
z
M 7.515625 32.71875 
Q 6.6875 32.71875 6.140625 33.296875 
Q 5.609375 33.890625 5.609375 34.71875 
Q 5.609375 35.453125 6.140625 36.078125 
Q 6.6875 36.71875 7.515625 36.71875 
L 70.3125 36.71875 
Q 71.046875 36.71875 71.578125 36.078125 
Q 72.125 35.453125 72.125 34.71875 
Q 72.125 33.890625 71.578125 33.296875 
Q 71.046875 32.71875 70.3125 32.71875 
z
" id="Cmr10-3d"/>
    </defs>
    <g transform="translate(222.5 108.99)scale(0.2 -0.2)">
     <use xlink:href="#Cmmi10-c1"/>
     <use transform="translate(59.521484375 0.0)" xlink:href="#Cmr10-28"/>
     <use transform="translate(98.33984375 0.0)" xlink:href="#Cmmi10-78"/>
     <use transform="translate(155.419921875 0.0)" xlink:href="#Cmr10-29"/>
     <use transform="translate(211.796875 0.0)" xlink:href="#Cmr10-3d"/>
     <use transform="translate(307.041015625 0.0)" xlink:href="#Cmr10-31"/>
    </g>
   </g>
   <g id="text_12">
    <!-- $\phi(x) = x$ -->
    <g transform="translate(221.8 314.055)scale(0.2 -0.2)">
     <use xlink:href="#Cmmi10-c1"/>
     <use transform="translate(59.521484375 0.0)" xlink:href="#Cmr10-28"/>
     <use transform="translate(98.33984375 0.0)" xlink:href="#Cmmi10-78"/>
     <use transform="translate(155.419921875 0.0)" xlink:href="#Cmr10-29"/>
     <use transform="translate(211.796875 0.0)" xlink:href="#Cmr10-3d"/>
     <use transform="translate(307.041015625 0.0)" xlink:href="#Cmmi10-78"/>
    </g>
   </g>
   <g id="text_13">
    <!-- $\phi(x) = x^2$ -->
    <defs>
     <path d="M 4.984375 0 
L 4.984375 2.6875 
Q 4.984375 2.9375 5.171875 3.21875 
L 20.703125 20.40625 
Q 24.21875 24.21875 26.40625 26.796875 
Q 28.609375 29.390625 30.75 32.765625 
Q 32.90625 36.140625 34.15625 39.625 
Q 35.40625 43.109375 35.40625 47.015625 
Q 35.40625 51.125 33.890625 54.859375 
Q 32.375 58.59375 29.375 60.84375 
Q 26.375 63.09375 22.125 63.09375 
Q 17.78125 63.09375 14.3125 60.46875 
Q 10.84375 57.859375 9.421875 53.71875 
Q 9.8125 53.8125 10.5 53.8125 
Q 12.75 53.8125 14.328125 52.296875 
Q 15.921875 50.78125 15.921875 48.390625 
Q 15.921875 46.09375 14.328125 44.5 
Q 12.75 42.921875 10.5 42.921875 
Q 8.15625 42.921875 6.5625 44.546875 
Q 4.984375 46.1875 4.984375 48.390625 
Q 4.984375 52.15625 6.390625 55.4375 
Q 7.8125 58.734375 10.46875 61.296875 
Q 13.140625 63.875 16.484375 65.234375 
Q 19.828125 66.609375 23.578125 66.609375 
Q 29.296875 66.609375 34.21875 64.1875 
Q 39.15625 61.765625 42.03125 57.34375 
Q 44.921875 52.9375 44.921875 47.015625 
Q 44.921875 42.671875 43.015625 38.765625 
Q 41.109375 34.859375 38.125 31.65625 
Q 35.15625 28.46875 30.515625 24.40625 
Q 25.875 20.359375 24.421875 19 
L 13.09375 8.109375 
L 22.703125 8.109375 
Q 29.78125 8.109375 34.546875 8.21875 
Q 39.3125 8.34375 39.59375 8.59375 
Q 40.765625 9.859375 42 17.828125 
L 44.921875 17.828125 
L 42.09375 0 
z
" id="Cmr10-32"/>
    </defs>
    <g transform="translate(329.773076923 265.23)scale(0.2 -0.2)">
     <use transform="translate(0.0 0.109375)" xlink:href="#Cmmi10-c1"/>
     <use transform="translate(59.521484375 0.109375)" xlink:href="#Cmr10-28"/>
     <use transform="translate(98.33984375 0.109375)" xlink:href="#Cmmi10-78"/>
     <use transform="translate(155.419921875 0.109375)" xlink:href="#Cmr10-29"/>
     <use transform="translate(211.796875 0.109375)" xlink:href="#Cmr10-3d"/>
     <use transform="translate(307.041015625 0.109375)" xlink:href="#Cmmi10-78"/>
     <use transform="translate(370.424375 38.3734375)scale(0.7)" xlink:href="#Cmr10-32"/>
    </g>
   </g>
  </g>
 </g>
 <defs>
  <clipPath id="pfa77c4b417">
   <rect height="390.6" width="390.6" x="63.0" y="50.4"/>
  </clipPath>
 </defs>
</svg>
