<?xml version="1.0" encoding="utf-8" standalone="no"?>
<!DOCTYPE svg PUBLIC "-//W3C//DTD SVG 1.1//EN"
  "http://www.w3.org/Graphics/SVG/1.1/DTD/svg11.dtd">
<!-- Created with matplotlib (http://matplotlib.org/) -->
<svg height="504pt" version="1.1" viewBox="0 0 504 504" width="504pt" xmlns="http://www.w3.org/2000/svg" xmlns:xlink="http://www.w3.org/1999/xlink">
 <defs>
  <style type="text/css">
*{stroke-linecap:butt;stroke-linejoin:round;stroke-miterlimit:100000;}
  </style>
 </defs>
 <g id="figure_1">
  <g id="patch_1">
   <path d="M 0 504 
L 504 504 
L 504 0 
L 0 0 
z
" style="fill:#ffffff;"/>
  </g>
  <g id="axes_1">
   <g id="patch_2">
    <path d="M 63 441 
L 453.6 441 
L 453.6 50.4 
L 63 50.4 
z
" style="fill:#ffffff;"/>
   </g>
   <g id="line2d_1">
    <path clip-path="url(#pd848286e33)" d="M 63 225.042775 
L 66.945455 226.28677 
L 70.890909 227.679969 
L 74.836364 229.227375 
L 78.781818 230.931596 
L 82.727273 232.792412 
L 86.672727 234.806374 
L 90.618182 236.966466 
L 94.563636 239.261843 
L 98.509091 241.677669 
L 102.454545 244.195083 
L 106.4 246.791297 
L 110.345455 249.439844 
L 114.290909 252.11098 
L 118.236364 254.77224 
L 122.181818 257.38913 
L 126.127273 259.925953 
L 130.072727 262.346727 
L 134.018182 264.616176 
L 137.963636 266.700746 
L 141.909091 268.569617 
L 145.854545 270.195654 
L 149.8 271.55626 
L 153.745455 272.634096 
L 157.690909 273.417624 
L 161.636364 273.901441 
L 165.581818 274.086403 
L 169.527273 273.979508 
L 173.472727 273.593555 
L 177.418182 272.946584 
L 181.363636 272.061126 
L 185.309091 270.963291 
L 189.254545 269.681735 
L 193.2 268.246564 
L 197.145455 266.6882 
L 201.090909 265.03629 
L 205.036364 263.318671 
L 208.981818 261.560472 
L 212.927273 259.783349 
L 216.872727 258.004918 
L 220.818182 256.238375 
L 224.763636 254.492332 
L 228.709091 252.770858 
L 232.654545 251.073707 
L 236.6 249.396737 
L 240.545455 247.732465 
L 244.490909 246.07075 
L 248.436364 244.399555 
L 252.381818 242.705758 
L 256.327273 240.975984 
L 260.272727 239.197403 
L 264.218182 237.35849 
L 268.163636 235.449699 
L 272.109091 233.464048 
L 276.054545 231.39758 
L 280 229.249704 
L 283.945455 227.023413 
L 287.890909 224.725354 
L 291.836364 222.365785 
L 295.781818 219.958396 
L 299.727273 217.520032 
L 303.672727 215.070297 
L 307.618182 212.631087 
L 311.563636 210.226039 
L 315.509091 207.879932 
L 319.454545 205.618048 
L 323.4 203.465509 
L 327.345455 201.446621 
L 331.290909 199.584233 
L 335.236364 197.899131 
L 339.181818 196.409491 
L 343.127273 195.130395 
L 347.072727 194.073449 
L 351.018182 193.24648 
L 354.963636 192.653357 
L 358.909091 192.293917 
L 362.854545 192.164009 
L 366.8 192.255653 
L 370.745455 192.5573 
L 374.690909 193.054199 
L 378.636364 193.728834 
L 382.581818 194.56144 
L 386.527273 195.53055 
L 390.472727 196.613582 
L 394.418182 197.787423 
L 398.363636 199.028995 
L 402.309091 200.315794 
L 406.254545 201.626371 
L 410.2 202.940751 
L 414.145455 204.240773 
L 418.090909 205.51036 
L 422.036364 206.735686 
L 425.981818 207.905281 
L 429.927273 209.010044 
L 433.872727 210.043189 
L 437.818182 211.00013 
L 441.763636 211.878312 
L 445.709091 212.677012 
L 449.654545 213.397101 
L 453.6 214.040798 
" style="fill:none;stroke:#0000ff;stroke-linecap:square;stroke-width:3.0;"/>
   </g>
   <g id="line2d_2">
    <path clip-path="url(#pd848286e33)" d="M 63 210.248291 
L 66.945455 208.952587 
L 70.890909 207.502035 
L 74.836364 205.891677 
L 78.781818 204.119124 
L 82.727273 202.185026 
L 86.672727 200.0935 
L 90.618182 197.85251 
L 94.563636 195.474157 
L 98.509091 192.974868 
L 102.454545 190.375461 
L 106.4 187.701061 
L 110.345455 184.980866 
L 114.290909 182.247747 
L 118.236364 179.537686 
L 122.181818 176.889065 
L 126.127273 174.341808 
L 130.072727 171.936416 
L 134.018182 169.71292 
L 137.963636 167.709784 
L 141.909091 165.962806 
L 145.854545 164.504058 
L 149.8 163.360907 
L 153.745455 162.555163 
L 157.690909 162.102385 
L 161.636364 162.011385 
L 165.581818 162.28394 
L 169.527273 162.914733 
L 173.472727 163.891531 
L 177.418182 165.195572 
L 181.363636 166.802172 
L 185.309091 168.681494 
L 189.254545 170.799477 
L 193.2 173.118853 
L 197.145455 175.600236 
L 201.090909 178.203226 
L 205.036364 180.887482 
L 208.981818 183.613738 
L 212.927273 186.344714 
L 216.872727 189.045902 
L 220.818182 191.686208 
L 224.763636 194.238431 
L 228.709091 196.67958 
L 232.654545 198.991031 
L 236.6 201.158537 
L 240.545455 203.172097 
L 244.490909 205.025711 
L 248.436364 206.717047 
L 252.381818 208.247032 
L 256.327273 209.619398 
L 260.272727 210.840208 
L 264.218182 211.917373 
L 268.163636 212.860187 
L 272.109091 213.678895 
L 276.054545 214.38429 
L 280 214.987371 
L 283.945455 215.499046 
L 287.890909 215.929889 
L 291.836364 216.289951 
L 295.781818 216.588624 
L 299.727273 216.834548 
L 303.672727 217.035555 
L 307.618182 217.198651 
L 311.563636 217.33003 
L 315.509091 217.435096 
L 319.454545 217.518518 
L 323.4 217.584282 
L 327.345455 217.635757 
L 331.290909 217.675763 
L 335.236364 217.706636 
L 339.181818 217.730294 
L 343.127273 217.748295 
L 347.072727 217.761898 
L 351.018182 217.772104 
L 354.963636 217.77971 
L 358.909091 217.785338 
L 362.854545 217.789474 
L 366.8 217.792492 
L 370.745455 217.79468 
L 374.690909 217.796255 
L 378.636364 217.79738 
L 382.581818 217.79818 
L 386.527273 217.798743 
L 390.472727 217.799138 
L 394.418182 217.799413 
L 398.363636 217.799602 
L 402.309091 217.799733 
L 406.254545 217.799821 
L 410.2 217.799881 
L 414.145455 217.799922 
L 418.090909 217.799949 
L 422.036364 217.799967 
L 425.981818 217.799978 
L 429.927273 217.799986 
L 433.872727 217.799991 
L 437.818182 217.799994 
L 441.763636 217.799996 
L 445.709091 217.799998 
L 449.654545 217.799999 
L 453.6 217.799999 
" style="fill:none;stroke:#ff0000;stroke-linecap:square;"/>
   </g>
   <g id="line2d_3">
    <path clip-path="url(#pd848286e33)" d="M 63 217.781281 
L 66.945455 217.774223 
L 70.890909 217.764733 
L 74.836364 217.752065 
L 78.781818 217.73527 
L 82.727273 217.71316 
L 86.672727 217.684256 
L 90.618182 217.646734 
L 94.563636 217.598371 
L 98.509091 217.536473 
L 102.454545 217.457814 
L 106.4 217.358568 
L 110.345455 217.234245 
L 114.290909 217.079627 
L 118.236364 216.888723 
L 122.181818 216.654731 
L 126.127273 216.370024 
L 130.072727 216.026161 
L 134.018182 215.613932 
L 137.963636 215.123439 
L 141.909091 214.544222 
L 145.854545 213.865438 
L 149.8 213.076084 
L 153.745455 212.165285 
L 157.690909 211.122623 
L 161.636364 209.938528 
L 165.581818 208.604699 
L 169.527273 207.114568 
L 173.472727 205.463774 
L 177.418182 203.650646 
L 181.363636 201.67666 
L 185.309091 199.546865 
L 189.254545 197.270233 
L 193.2 194.859934 
L 197.145455 192.333494 
L 201.090909 189.712818 
L 205.036364 187.024081 
L 208.981818 184.29744 
L 212.927273 181.566605 
L 216.872727 178.868231 
L 220.818182 176.241168 
L 224.763636 173.72558 
L 228.709091 171.361951 
L 232.654545 169.190025 
L 236.6 167.2477 
L 240.545455 165.569941 
L 244.490909 164.18773 
L 248.436364 163.12712 
L 252.381818 162.408415 
L 256.327273 162.045528 
L 260.272727 162.045528 
L 264.218182 162.408415 
L 268.163636 163.12712 
L 272.109091 164.18773 
L 276.054545 165.569941 
L 280 167.2477 
L 283.945455 169.190025 
L 287.890909 171.361951 
L 291.836364 173.72558 
L 295.781818 176.241168 
L 299.727273 178.868231 
L 303.672727 181.566605 
L 307.618182 184.29744 
L 311.563636 187.024081 
L 315.509091 189.712818 
L 319.454545 192.333494 
L 323.4 194.859934 
L 327.345455 197.270233 
L 331.290909 199.546865 
L 335.236364 201.67666 
L 339.181818 203.650646 
L 343.127273 205.463774 
L 347.072727 207.114568 
L 351.018182 208.604699 
L 354.963636 209.938528 
L 358.909091 211.122623 
L 362.854545 212.165285 
L 366.8 213.076084 
L 370.745455 213.865438 
L 374.690909 214.544222 
L 378.636364 215.123439 
L 382.581818 215.613932 
L 386.527273 216.026161 
L 390.472727 216.370024 
L 394.418182 216.654731 
L 398.363636 216.888723 
L 402.309091 217.079627 
L 406.254545 217.234245 
L 410.2 217.358568 
L 414.145455 217.457814 
L 418.090909 217.536473 
L 422.036364 217.598371 
L 425.981818 217.646734 
L 429.927273 217.684256 
L 433.872727 217.71316 
L 437.818182 217.73527 
L 441.763636 217.752065 
L 445.709091 217.764733 
L 449.654545 217.774223 
L 453.6 217.781281 
" style="fill:none;stroke:#ff00ff;stroke-linecap:square;"/>
   </g>
   <g id="line2d_4">
    <path clip-path="url(#pd848286e33)" d="M 63 217.799999 
L 66.945455 217.799999 
L 70.890909 217.799998 
L 74.836364 217.799996 
L 78.781818 217.799994 
L 82.727273 217.799991 
L 86.672727 217.799986 
L 90.618182 217.799978 
L 94.563636 217.799967 
L 98.509091 217.799949 
L 102.454545 217.799922 
L 106.4 217.799881 
L 110.345455 217.799821 
L 114.290909 217.799733 
L 118.236364 217.799602 
L 122.181818 217.799413 
L 126.127273 217.799138 
L 130.072727 217.798743 
L 134.018182 217.79818 
L 137.963636 217.79738 
L 141.909091 217.796255 
L 145.854545 217.79468 
L 149.8 217.792492 
L 153.745455 217.789474 
L 157.690909 217.785338 
L 161.636364 217.77971 
L 165.581818 217.772104 
L 169.527273 217.761898 
L 173.472727 217.748295 
L 177.418182 217.730294 
L 181.363636 217.706636 
L 185.309091 217.675763 
L 189.254545 217.635757 
L 193.2 217.584282 
L 197.145455 217.518518 
L 201.090909 217.435096 
L 205.036364 217.33003 
L 208.981818 217.198651 
L 212.927273 217.035555 
L 216.872727 216.834548 
L 220.818182 216.588624 
L 224.763636 216.289951 
L 228.709091 215.929889 
L 232.654545 215.499046 
L 236.6 214.987371 
L 240.545455 214.38429 
L 244.490909 213.678895 
L 248.436364 212.860187 
L 252.381818 211.917373 
L 256.327273 210.840208 
L 260.272727 209.619398 
L 264.218182 208.247032 
L 268.163636 206.717047 
L 272.109091 205.025711 
L 276.054545 203.172097 
L 280 201.158537 
L 283.945455 198.991031 
L 287.890909 196.67958 
L 291.836364 194.238431 
L 295.781818 191.686208 
L 299.727273 189.045902 
L 303.672727 186.344714 
L 307.618182 183.613738 
L 311.563636 180.887482 
L 315.509091 178.203226 
L 319.454545 175.600236 
L 323.4 173.118853 
L 327.345455 170.799477 
L 331.290909 168.681494 
L 335.236364 166.802172 
L 339.181818 165.195572 
L 343.127273 163.891531 
L 347.072727 162.914733 
L 351.018182 162.28394 
L 354.963636 162.011385 
L 358.909091 162.102385 
L 362.854545 162.555163 
L 366.8 163.360907 
L 370.745455 164.504058 
L 374.690909 165.962806 
L 378.636364 167.709784 
L 382.581818 169.71292 
L 386.527273 171.936416 
L 390.472727 174.341808 
L 394.418182 176.889065 
L 398.363636 179.537686 
L 402.309091 182.247747 
L 406.254545 184.980866 
L 410.2 187.701061 
L 414.145455 190.375461 
L 418.090909 192.974868 
L 422.036364 195.474157 
L 425.981818 197.85251 
L 429.927273 200.0935 
L 433.872727 202.185026 
L 437.818182 204.119124 
L 441.763636 205.891677 
L 445.709091 207.502035 
L 449.654545 208.952587 
L 453.6 210.248291 
" style="fill:none;stroke:#0000ff;stroke-linecap:square;"/>
   </g>
   <g id="patch_3">
    <path d="M 63 50.4 
L 453.6 50.4 
" style="fill:none;stroke:#000000;stroke-linecap:square;stroke-linejoin:miter;"/>
   </g>
   <g id="patch_4">
    <path d="M 453.6 441 
L 453.6 50.4 
" style="fill:none;stroke:#000000;stroke-linecap:square;stroke-linejoin:miter;"/>
   </g>
   <g id="patch_5">
    <path d="M 63 441 
L 453.6 441 
" style="fill:none;stroke:#000000;stroke-linecap:square;stroke-linejoin:miter;"/>
   </g>
   <g id="patch_6">
    <path d="M 63 441 
L 63 50.4 
" style="fill:none;stroke:#000000;stroke-linecap:square;stroke-linejoin:miter;"/>
   </g>
   <g id="matplotlib.axis_1">
    <g id="xtick_1">
     <g id="line2d_5">
      <defs>
       <path d="M 0 0 
L 0 -4 
" id="mda10500705" style="stroke:#000000;stroke-width:0.5;"/>
      </defs>
      <g>
       <use style="stroke:#000000;stroke-width:0.5;" x="160.65" xlink:href="#mda10500705" y="441.0"/>
      </g>
     </g>
     <g id="line2d_6">
      <defs>
       <path d="M 0 0 
L 0 4 
" id="mbcc16cff90" style="stroke:#000000;stroke-width:0.5;"/>
      </defs>
      <g>
       <use style="stroke:#000000;stroke-width:0.5;" x="160.65" xlink:href="#mbcc16cff90" y="50.4"/>
      </g>
     </g>
     <g id="text_1">
      <!-- −1 -->
      <defs>
       <path d="M 10.59375 35.5 
L 73.1875 35.5 
L 73.1875 27.203125 
L 10.59375 27.203125 
z
" id="BitstreamVeraSans-Roman-2212"/>
       <path d="M 12.40625 8.296875 
L 28.515625 8.296875 
L 28.515625 63.921875 
L 10.984375 60.40625 
L 10.984375 69.390625 
L 28.421875 72.90625 
L 38.28125 72.90625 
L 38.28125 8.296875 
L 54.390625 8.296875 
L 54.390625 0 
L 12.40625 0 
z
" id="BitstreamVeraSans-Roman-31"/>
      </defs>
      <g transform="translate(153.27890625 452.5984375)scale(0.1 -0.1)">
       <use xlink:href="#BitstreamVeraSans-Roman-2212"/>
       <use x="83.7890625" xlink:href="#BitstreamVeraSans-Roman-31"/>
      </g>
     </g>
    </g>
    <g id="xtick_2">
     <g id="line2d_7">
      <g>
       <use style="stroke:#000000;stroke-width:0.5;" x="258.3" xlink:href="#mda10500705" y="441.0"/>
      </g>
     </g>
     <g id="line2d_8">
      <g>
       <use style="stroke:#000000;stroke-width:0.5;" x="258.3" xlink:href="#mbcc16cff90" y="50.4"/>
      </g>
     </g>
     <g id="text_2">
      <!-- 0 -->
      <defs>
       <path d="M 31.78125 66.40625 
Q 24.171875 66.40625 20.328125 58.90625 
Q 16.5 51.421875 16.5 36.375 
Q 16.5 21.390625 20.328125 13.890625 
Q 24.171875 6.390625 31.78125 6.390625 
Q 39.453125 6.390625 43.28125 13.890625 
Q 47.125 21.390625 47.125 36.375 
Q 47.125 51.421875 43.28125 58.90625 
Q 39.453125 66.40625 31.78125 66.40625 
M 31.78125 74.21875 
Q 44.046875 74.21875 50.515625 64.515625 
Q 56.984375 54.828125 56.984375 36.375 
Q 56.984375 17.96875 50.515625 8.265625 
Q 44.046875 -1.421875 31.78125 -1.421875 
Q 19.53125 -1.421875 13.0625 8.265625 
Q 6.59375 17.96875 6.59375 36.375 
Q 6.59375 54.828125 13.0625 64.515625 
Q 19.53125 74.21875 31.78125 74.21875 
" id="BitstreamVeraSans-Roman-30"/>
      </defs>
      <g transform="translate(255.11875 452.5984375)scale(0.1 -0.1)">
       <use xlink:href="#BitstreamVeraSans-Roman-30"/>
      </g>
     </g>
    </g>
    <g id="xtick_3">
     <g id="line2d_9">
      <g>
       <use style="stroke:#000000;stroke-width:0.5;" x="355.95" xlink:href="#mda10500705" y="441.0"/>
      </g>
     </g>
     <g id="line2d_10">
      <g>
       <use style="stroke:#000000;stroke-width:0.5;" x="355.95" xlink:href="#mbcc16cff90" y="50.4"/>
      </g>
     </g>
     <g id="text_3">
      <!-- 1 -->
      <g transform="translate(352.76875 452.5984375)scale(0.1 -0.1)">
       <use xlink:href="#BitstreamVeraSans-Roman-31"/>
      </g>
     </g>
    </g>
    <g id="text_4">
     <!-- $x$ -->
     <defs>
      <path d="M 7.8125 2.875 
Q 9.578125 1.515625 12.796875 1.515625 
Q 15.921875 1.515625 18.3125 4.515625 
Q 20.703125 7.515625 21.578125 11.078125 
L 26.125 28.8125 
Q 27.203125 33.640625 27.203125 35.40625 
Q 27.203125 37.890625 25.8125 39.75 
Q 24.421875 41.609375 21.921875 41.609375 
Q 18.75 41.609375 15.96875 39.625 
Q 13.1875 37.640625 11.28125 34.59375 
Q 9.375 31.546875 8.59375 28.421875 
Q 8.40625 27.78125 7.8125 27.78125 
L 6.59375 27.78125 
Q 5.8125 27.78125 5.8125 28.71875 
L 5.8125 29 
Q 6.78125 32.71875 9.125 36.25 
Q 11.46875 39.796875 14.859375 41.984375 
Q 18.265625 44.1875 22.125 44.1875 
Q 25.78125 44.1875 28.734375 42.234375 
Q 31.6875 40.28125 32.90625 36.921875 
Q 34.625 39.984375 37.28125 42.078125 
Q 39.9375 44.1875 43.109375 44.1875 
Q 45.265625 44.1875 47.5 43.421875 
Q 49.75 42.671875 51.171875 41.109375 
Q 52.59375 39.546875 52.59375 37.203125 
Q 52.59375 34.671875 50.953125 32.828125 
Q 49.3125 31 46.78125 31 
Q 45.171875 31 44.09375 32.03125 
Q 43.015625 33.0625 43.015625 34.625 
Q 43.015625 36.71875 44.453125 38.296875 
Q 45.90625 39.890625 47.90625 40.1875 
Q 46.09375 41.609375 42.921875 41.609375 
Q 39.703125 41.609375 37.328125 38.625 
Q 34.96875 35.640625 33.984375 31.984375 
L 29.59375 14.3125 
Q 28.515625 10.296875 28.515625 7.71875 
Q 28.515625 5.171875 29.953125 3.34375 
Q 31.390625 1.515625 33.796875 1.515625 
Q 38.484375 1.515625 42.15625 5.640625 
Q 45.84375 9.765625 47.015625 14.703125 
Q 47.21875 15.28125 47.796875 15.28125 
L 49.03125 15.28125 
Q 49.421875 15.28125 49.65625 15.015625 
Q 49.90625 14.75 49.90625 14.40625 
Q 49.90625 14.3125 49.8125 14.109375 
Q 48.390625 8.15625 43.84375 3.515625 
Q 39.3125 -1.125 33.59375 -1.125 
Q 29.9375 -1.125 26.984375 0.84375 
Q 24.03125 2.828125 22.796875 6.203125 
Q 21.234375 3.265625 18.46875 1.0625 
Q 15.71875 -1.125 12.59375 -1.125 
Q 10.453125 -1.125 8.171875 -0.359375 
Q 5.90625 0.390625 4.484375 1.953125 
Q 3.078125 3.515625 3.078125 5.90625 
Q 3.078125 8.25 4.703125 10.171875 
Q 6.34375 12.109375 8.796875 12.109375 
Q 10.453125 12.109375 11.578125 11.109375 
Q 12.703125 10.109375 12.703125 8.5 
Q 12.703125 6.390625 11.296875 4.828125 
Q 9.90625 3.265625 7.8125 2.875 
" id="Cmmi10-78"/>
     </defs>
     <g transform="translate(252.5 474.875)scale(0.2 -0.2)">
      <use transform="translate(0.0 0.8125)" xlink:href="#Cmmi10-78"/>
     </g>
    </g>
   </g>
   <g id="matplotlib.axis_2">
    <g id="ytick_1">
     <g id="line2d_11">
      <defs>
       <path d="M 0 0 
L 4 0 
" id="m1d84fea964" style="stroke:#000000;stroke-width:0.5;"/>
      </defs>
      <g>
       <use style="stroke:#000000;stroke-width:0.5;" x="63.0" xlink:href="#m1d84fea964" y="441.0"/>
      </g>
     </g>
     <g id="line2d_12">
      <defs>
       <path d="M 0 0 
L -4 0 
" id="m26f773ed02" style="stroke:#000000;stroke-width:0.5;"/>
      </defs>
      <g>
       <use style="stroke:#000000;stroke-width:0.5;" x="453.6" xlink:href="#m26f773ed02" y="441.0"/>
      </g>
     </g>
     <g id="text_5">
      <!-- −4 -->
      <defs>
       <path d="M 37.796875 64.3125 
L 12.890625 25.390625 
L 37.796875 25.390625 
z
M 35.203125 72.90625 
L 47.609375 72.90625 
L 47.609375 25.390625 
L 58.015625 25.390625 
L 58.015625 17.1875 
L 47.609375 17.1875 
L 47.609375 0 
L 37.796875 0 
L 37.796875 17.1875 
L 4.890625 17.1875 
L 4.890625 26.703125 
z
" id="BitstreamVeraSans-Roman-34"/>
      </defs>
      <g transform="translate(44.2578125 443.759375)scale(0.1 -0.1)">
       <use xlink:href="#BitstreamVeraSans-Roman-2212"/>
       <use x="83.7890625" xlink:href="#BitstreamVeraSans-Roman-34"/>
      </g>
     </g>
    </g>
    <g id="ytick_2">
     <g id="line2d_13">
      <g>
       <use style="stroke:#000000;stroke-width:0.5;" x="63.0" xlink:href="#m1d84fea964" y="385.2"/>
      </g>
     </g>
     <g id="line2d_14">
      <g>
       <use style="stroke:#000000;stroke-width:0.5;" x="453.6" xlink:href="#m26f773ed02" y="385.2"/>
      </g>
     </g>
     <g id="text_6">
      <!-- −3 -->
      <defs>
       <path d="M 40.578125 39.3125 
Q 47.65625 37.796875 51.625 33 
Q 55.609375 28.21875 55.609375 21.1875 
Q 55.609375 10.40625 48.1875 4.484375 
Q 40.765625 -1.421875 27.09375 -1.421875 
Q 22.515625 -1.421875 17.65625 -0.515625 
Q 12.796875 0.390625 7.625 2.203125 
L 7.625 11.71875 
Q 11.71875 9.328125 16.59375 8.109375 
Q 21.484375 6.890625 26.8125 6.890625 
Q 36.078125 6.890625 40.9375 10.546875 
Q 45.796875 14.203125 45.796875 21.1875 
Q 45.796875 27.640625 41.28125 31.265625 
Q 36.765625 34.90625 28.71875 34.90625 
L 20.21875 34.90625 
L 20.21875 43.015625 
L 29.109375 43.015625 
Q 36.375 43.015625 40.234375 45.921875 
Q 44.09375 48.828125 44.09375 54.296875 
Q 44.09375 59.90625 40.109375 62.90625 
Q 36.140625 65.921875 28.71875 65.921875 
Q 24.65625 65.921875 20.015625 65.03125 
Q 15.375 64.15625 9.8125 62.3125 
L 9.8125 71.09375 
Q 15.4375 72.65625 20.34375 73.4375 
Q 25.25 74.21875 29.59375 74.21875 
Q 40.828125 74.21875 47.359375 69.109375 
Q 53.90625 64.015625 53.90625 55.328125 
Q 53.90625 49.265625 50.4375 45.09375 
Q 46.96875 40.921875 40.578125 39.3125 
" id="BitstreamVeraSans-Roman-33"/>
      </defs>
      <g transform="translate(44.2578125 387.959375)scale(0.1 -0.1)">
       <use xlink:href="#BitstreamVeraSans-Roman-2212"/>
       <use x="83.7890625" xlink:href="#BitstreamVeraSans-Roman-33"/>
      </g>
     </g>
    </g>
    <g id="ytick_3">
     <g id="line2d_15">
      <g>
       <use style="stroke:#000000;stroke-width:0.5;" x="63.0" xlink:href="#m1d84fea964" y="329.4"/>
      </g>
     </g>
     <g id="line2d_16">
      <g>
       <use style="stroke:#000000;stroke-width:0.5;" x="453.6" xlink:href="#m26f773ed02" y="329.4"/>
      </g>
     </g>
     <g id="text_7">
      <!-- −2 -->
      <defs>
       <path d="M 19.1875 8.296875 
L 53.609375 8.296875 
L 53.609375 0 
L 7.328125 0 
L 7.328125 8.296875 
Q 12.9375 14.109375 22.625 23.890625 
Q 32.328125 33.6875 34.8125 36.53125 
Q 39.546875 41.84375 41.421875 45.53125 
Q 43.3125 49.21875 43.3125 52.78125 
Q 43.3125 58.59375 39.234375 62.25 
Q 35.15625 65.921875 28.609375 65.921875 
Q 23.96875 65.921875 18.8125 64.3125 
Q 13.671875 62.703125 7.8125 59.421875 
L 7.8125 69.390625 
Q 13.765625 71.78125 18.9375 73 
Q 24.125 74.21875 28.421875 74.21875 
Q 39.75 74.21875 46.484375 68.546875 
Q 53.21875 62.890625 53.21875 53.421875 
Q 53.21875 48.921875 51.53125 44.890625 
Q 49.859375 40.875 45.40625 35.40625 
Q 44.1875 33.984375 37.640625 27.21875 
Q 31.109375 20.453125 19.1875 8.296875 
" id="BitstreamVeraSans-Roman-32"/>
      </defs>
      <g transform="translate(44.2578125 332.159375)scale(0.1 -0.1)">
       <use xlink:href="#BitstreamVeraSans-Roman-2212"/>
       <use x="83.7890625" xlink:href="#BitstreamVeraSans-Roman-32"/>
      </g>
     </g>
    </g>
    <g id="ytick_4">
     <g id="line2d_17">
      <g>
       <use style="stroke:#000000;stroke-width:0.5;" x="63.0" xlink:href="#m1d84fea964" y="273.6"/>
      </g>
     </g>
     <g id="line2d_18">
      <g>
       <use style="stroke:#000000;stroke-width:0.5;" x="453.6" xlink:href="#m26f773ed02" y="273.6"/>
      </g>
     </g>
     <g id="text_8">
      <!-- −1 -->
      <g transform="translate(44.2578125 276.359375)scale(0.1 -0.1)">
       <use xlink:href="#BitstreamVeraSans-Roman-2212"/>
       <use x="83.7890625" xlink:href="#BitstreamVeraSans-Roman-31"/>
      </g>
     </g>
    </g>
    <g id="ytick_5">
     <g id="line2d_19">
      <g>
       <use style="stroke:#000000;stroke-width:0.5;" x="63.0" xlink:href="#m1d84fea964" y="217.8"/>
      </g>
     </g>
     <g id="line2d_20">
      <g>
       <use style="stroke:#000000;stroke-width:0.5;" x="453.6" xlink:href="#m26f773ed02" y="217.8"/>
      </g>
     </g>
     <g id="text_9">
      <!-- 0 -->
      <g transform="translate(52.6375 220.559375)scale(0.1 -0.1)">
       <use xlink:href="#BitstreamVeraSans-Roman-30"/>
      </g>
     </g>
    </g>
    <g id="ytick_6">
     <g id="line2d_21">
      <g>
       <use style="stroke:#000000;stroke-width:0.5;" x="63.0" xlink:href="#m1d84fea964" y="162.0"/>
      </g>
     </g>
     <g id="line2d_22">
      <g>
       <use style="stroke:#000000;stroke-width:0.5;" x="453.6" xlink:href="#m26f773ed02" y="162.0"/>
      </g>
     </g>
     <g id="text_10">
      <!-- 1 -->
      <g transform="translate(52.6375 164.759375)scale(0.1 -0.1)">
       <use xlink:href="#BitstreamVeraSans-Roman-31"/>
      </g>
     </g>
    </g>
    <g id="ytick_7">
     <g id="line2d_23">
      <g>
       <use style="stroke:#000000;stroke-width:0.5;" x="63.0" xlink:href="#m1d84fea964" y="106.2"/>
      </g>
     </g>
     <g id="line2d_24">
      <g>
       <use style="stroke:#000000;stroke-width:0.5;" x="453.6" xlink:href="#m26f773ed02" y="106.2"/>
      </g>
     </g>
     <g id="text_11">
      <!-- 2 -->
      <g transform="translate(52.6375 108.959375)scale(0.1 -0.1)">
       <use xlink:href="#BitstreamVeraSans-Roman-32"/>
      </g>
     </g>
    </g>
    <g id="ytick_8">
     <g id="line2d_25">
      <g>
       <use style="stroke:#000000;stroke-width:0.5;" x="63.0" xlink:href="#m1d84fea964" y="50.4"/>
      </g>
     </g>
     <g id="line2d_26">
      <g>
       <use style="stroke:#000000;stroke-width:0.5;" x="453.6" xlink:href="#m26f773ed02" y="50.4"/>
      </g>
     </g>
     <g id="text_12">
      <!-- 3 -->
      <g transform="translate(52.6375 53.159375)scale(0.1 -0.1)">
       <use xlink:href="#BitstreamVeraSans-Roman-33"/>
      </g>
     </g>
    </g>
    <g id="text_13">
     <!-- $f(x)$ -->
     <defs>
      <path d="M 31 -24.8125 
Q 25.4375 -20.40625 21.40625 -14.71875 
Q 17.390625 -9.03125 14.8125 -2.578125 
Q 12.25 3.859375 10.984375 10.890625 
Q 9.71875 17.921875 9.71875 25 
Q 9.71875 32.171875 10.984375 39.203125 
Q 12.25 46.234375 14.859375 52.734375 
Q 17.484375 59.234375 21.53125 64.890625 
Q 25.59375 70.5625 31 74.8125 
Q 31 75 31.5 75 
L 32.421875 75 
Q 32.71875 75 32.953125 74.734375 
Q 33.203125 74.46875 33.203125 74.125 
Q 33.203125 73.6875 33.015625 73.484375 
Q 28.125 68.703125 24.875 63.234375 
Q 21.625 57.765625 19.640625 51.578125 
Q 17.671875 45.40625 16.796875 38.78125 
Q 15.921875 32.171875 15.921875 25 
Q 15.921875 -6.78125 32.90625 -23.296875 
Q 33.203125 -23.578125 33.203125 -24.125 
Q 33.203125 -24.359375 32.9375 -24.671875 
Q 32.671875 -25 32.421875 -25 
L 31.5 -25 
Q 31 -25 31 -24.8125 
" id="Cmr10-28"/>
      <path d="M 6.5 -25 
Q 5.609375 -25 5.609375 -24.125 
Q 5.609375 -23.6875 5.8125 -23.484375 
Q 22.90625 -6.78125 22.90625 25 
Q 22.90625 56.78125 6 73.296875 
Q 5.609375 73.53125 5.609375 74.125 
Q 5.609375 74.46875 5.875 74.734375 
Q 6.15625 75 6.5 75 
L 7.421875 75 
Q 7.71875 75 7.90625 74.8125 
Q 15.09375 69.140625 19.875 61.03125 
Q 24.65625 52.9375 26.875 43.75 
Q 29.109375 34.578125 29.109375 25 
Q 29.109375 17.921875 27.90625 11.0625 
Q 26.703125 4.203125 24.09375 -2.453125 
Q 21.484375 -9.125 17.484375 -14.765625 
Q 13.484375 -20.40625 7.90625 -24.8125 
Q 7.71875 -25 7.421875 -25 
z
" id="Cmr10-29"/>
      <path d="M 9.71875 -16.5 
Q 11.578125 -17.921875 14.203125 -17.921875 
Q 17.78125 -17.921875 20.015625 -10.015625 
Q 20.953125 -6.203125 25.09375 15.09375 
L 29.6875 39.59375 
L 21.09375 39.59375 
Q 20.125 39.59375 20.125 40.921875 
Q 20.515625 43.109375 21.390625 43.109375 
L 30.328125 43.109375 
L 31.5 49.609375 
Q 32.078125 52.640625 32.5625 54.8125 
Q 33.0625 56.984375 33.625 58.828125 
Q 34.1875 60.6875 35.296875 62.984375 
Q 37.015625 66.265625 39.921875 68.390625 
Q 42.828125 70.515625 46.1875 70.515625 
Q 48.390625 70.515625 50.46875 69.703125 
Q 52.546875 68.890625 53.859375 67.28125 
Q 55.171875 65.671875 55.171875 63.484375 
Q 55.171875 60.9375 53.484375 59.046875 
Q 51.8125 57.171875 49.421875 57.171875 
Q 47.796875 57.171875 46.65625 58.171875 
Q 45.515625 59.1875 45.515625 60.796875 
Q 45.515625 62.984375 47 64.625 
Q 48.484375 66.265625 50.6875 66.5 
Q 48.828125 67.921875 46.09375 67.921875 
Q 44.578125 67.921875 43.234375 66.5 
Q 41.890625 65.09375 41.5 63.484375 
Q 40.875 60.9375 38.71875 49.703125 
L 37.5 43.109375 
L 47.796875 43.109375 
Q 48.78125 43.109375 48.78125 41.796875 
Q 48.734375 41.546875 48.578125 40.9375 
Q 48.4375 40.328125 48.171875 39.953125 
Q 47.90625 39.59375 47.515625 39.59375 
L 36.8125 39.59375 
L 32.171875 15.1875 
Q 31.296875 9.859375 30.140625 4.359375 
Q 29 -1.125 26.921875 -6.90625 
Q 24.859375 -12.703125 21.625 -16.609375 
Q 18.40625 -20.515625 14.015625 -20.515625 
Q 10.640625 -20.515625 7.984375 -18.578125 
Q 5.328125 -16.65625 5.328125 -13.484375 
Q 5.328125 -10.9375 6.953125 -9.046875 
Q 8.59375 -7.171875 11.078125 -7.171875 
Q 12.75 -7.171875 13.859375 -8.171875 
Q 14.984375 -9.1875 14.984375 -10.796875 
Q 14.984375 -12.9375 13.390625 -14.71875 
Q 11.8125 -16.5 9.71875 -16.5 
" id="Cmmi10-66"/>
     </defs>
     <g transform="translate(34.2578125 264.1)rotate(-90.0)scale(0.2 -0.2)">
      <use xlink:href="#Cmmi10-66"/>
      <use transform="translate(48.876953125 0.0)" xlink:href="#Cmr10-28"/>
      <use transform="translate(87.6953125 0.0)" xlink:href="#Cmmi10-78"/>
      <use transform="translate(144.775390625 0.0)" xlink:href="#Cmr10-29"/>
     </g>
    </g>
   </g>
   <g id="text_14">
    <!-- $w_0 = [-0.95825475]$ -->
    <defs>
     <path d="M 2.203125 -25 
L 2.203125 -21 
L 11.921875 -21 
L 11.921875 71 
L 2.203125 71 
L 2.203125 75 
L 15.921875 75 
L 15.921875 -25 
z
" id="Cmr10-5d"/>
     <path d="M 4.984375 0 
L 4.984375 2.6875 
Q 4.984375 2.9375 5.171875 3.21875 
L 20.703125 20.40625 
Q 24.21875 24.21875 26.40625 26.796875 
Q 28.609375 29.390625 30.75 32.765625 
Q 32.90625 36.140625 34.15625 39.625 
Q 35.40625 43.109375 35.40625 47.015625 
Q 35.40625 51.125 33.890625 54.859375 
Q 32.375 58.59375 29.375 60.84375 
Q 26.375 63.09375 22.125 63.09375 
Q 17.78125 63.09375 14.3125 60.46875 
Q 10.84375 57.859375 9.421875 53.71875 
Q 9.8125 53.8125 10.5 53.8125 
Q 12.75 53.8125 14.328125 52.296875 
Q 15.921875 50.78125 15.921875 48.390625 
Q 15.921875 46.09375 14.328125 44.5 
Q 12.75 42.921875 10.5 42.921875 
Q 8.15625 42.921875 6.5625 44.546875 
Q 4.984375 46.1875 4.984375 48.390625 
Q 4.984375 52.15625 6.390625 55.4375 
Q 7.8125 58.734375 10.46875 61.296875 
Q 13.140625 63.875 16.484375 65.234375 
Q 19.828125 66.609375 23.578125 66.609375 
Q 29.296875 66.609375 34.21875 64.1875 
Q 39.15625 61.765625 42.03125 57.34375 
Q 44.921875 52.9375 44.921875 47.015625 
Q 44.921875 42.671875 43.015625 38.765625 
Q 41.109375 34.859375 38.125 31.65625 
Q 35.15625 28.46875 30.515625 24.40625 
Q 25.875 20.359375 24.421875 19 
L 13.09375 8.109375 
L 22.703125 8.109375 
Q 29.78125 8.109375 34.546875 8.21875 
Q 39.3125 8.34375 39.59375 8.59375 
Q 40.765625 9.859375 42 17.828125 
L 44.921875 17.828125 
L 42.09375 0 
z
" id="Cmr10-32"/>
     <path d="M 10.203125 23 
Q 9.375 23 8.828125 23.625 
Q 8.296875 24.265625 8.296875 25 
Q 8.296875 25.734375 8.828125 26.359375 
Q 9.375 27 10.203125 27 
L 67.578125 27 
Q 68.359375 27 68.875 26.359375 
Q 69.390625 25.734375 69.390625 25 
Q 69.390625 24.265625 68.875 23.625 
Q 68.359375 23 67.578125 23 
z
" id="Cmsy10-a1"/>
     <path d="M 17.390625 2.59375 
Q 17.390625 8.15625 18.359375 13.46875 
Q 19.34375 18.796875 21.21875 24 
Q 23.09375 29.203125 25.75 34.203125 
Q 28.421875 39.203125 31.59375 43.609375 
L 40.71875 56.296875 
L 29.296875 56.296875 
Q 11.53125 56.296875 10.984375 55.8125 
Q 9.671875 54.203125 8.5 46.578125 
L 5.609375 46.578125 
L 8.890625 67.578125 
L 11.8125 67.578125 
L 11.8125 67.28125 
Q 11.8125 65.484375 17.921875 64.9375 
Q 24.03125 64.40625 29.890625 64.40625 
L 48.484375 64.40625 
L 48.484375 61.8125 
Q 48.484375 61.71875 48.453125 61.671875 
Q 48.4375 61.625 48.390625 61.53125 
L 34.625 42.1875 
Q 29.546875 34.671875 28.265625 25.484375 
Q 27 16.3125 27 2.59375 
Q 27 0.640625 25.578125 -0.78125 
Q 24.171875 -2.203125 22.21875 -2.203125 
Q 20.21875 -2.203125 18.796875 -0.78125 
Q 17.390625 0.640625 17.390625 2.59375 
" id="Cmr10-37"/>
     <path d="M 8.6875 11.375 
Q 9.71875 8.453125 11.84375 6.046875 
Q 13.96875 3.65625 16.875 2.3125 
Q 19.78125 0.984375 22.90625 0.984375 
Q 30.125 0.984375 32.859375 6.59375 
Q 35.59375 12.203125 35.59375 20.21875 
Q 35.59375 23.6875 35.46875 26.046875 
Q 35.359375 28.421875 34.8125 30.609375 
Q 33.890625 34.125 31.5625 36.765625 
Q 29.25 39.40625 25.875 39.40625 
Q 22.515625 39.40625 20.09375 38.375 
Q 17.671875 37.359375 16.15625 35.984375 
Q 14.65625 34.625 13.484375 33.109375 
Q 12.3125 31.59375 12.015625 31.5 
L 10.890625 31.5 
Q 10.640625 31.5 10.265625 31.8125 
Q 9.90625 32.125 9.90625 32.421875 
L 9.90625 65.828125 
Q 9.90625 66.0625 10.21875 66.328125 
Q 10.546875 66.609375 10.890625 66.609375 
L 11.1875 66.609375 
Q 17.921875 63.375 25.484375 63.375 
Q 32.90625 63.375 39.796875 66.609375 
L 40.09375 66.609375 
Q 40.4375 66.609375 40.71875 66.359375 
Q 41.015625 66.109375 41.015625 65.828125 
L 41.015625 64.890625 
Q 41.015625 64.40625 40.828125 64.40625 
Q 37.40625 59.859375 32.25 57.3125 
Q 27.09375 54.78125 21.578125 54.78125 
Q 17.578125 54.78125 13.375 55.90625 
L 13.375 37.015625 
Q 16.703125 39.703125 19.3125 40.84375 
Q 21.921875 42 25.984375 42 
Q 31.5 42 35.859375 38.8125 
Q 40.234375 35.640625 42.578125 30.53125 
Q 44.921875 25.4375 44.921875 20.125 
Q 44.921875 14.109375 41.96875 8.984375 
Q 39.015625 3.859375 33.9375 0.828125 
Q 28.859375 -2.203125 22.90625 -2.203125 
Q 17.96875 -2.203125 13.84375 0.328125 
Q 9.71875 2.875 7.34375 7.171875 
Q 4.984375 11.46875 4.984375 16.3125 
Q 4.984375 18.5625 6.4375 19.96875 
Q 7.90625 21.390625 10.109375 21.390625 
Q 12.3125 21.390625 13.796875 19.9375 
Q 15.28125 18.5 15.28125 16.3125 
Q 15.28125 14.15625 13.796875 12.671875 
Q 12.3125 11.1875 10.109375 11.1875 
Q 9.765625 11.1875 9.328125 11.25 
Q 8.890625 11.328125 8.6875 11.375 
" id="Cmr10-35"/>
     <path d="M 11.8125 -25 
L 11.8125 75 
L 25.484375 75 
L 25.484375 71 
L 15.828125 71 
L 15.828125 -21 
L 25.484375 -21 
L 25.484375 -25 
z
" id="Cmr10-5b"/>
     <path d="M 11.28125 4.203125 
Q 14.015625 0.984375 20.796875 0.984375 
Q 24.609375 0.984375 27.90625 3.5625 
Q 31.203125 6.15625 33.015625 9.90625 
Q 35.109375 14.15625 35.6875 18.96875 
Q 36.28125 23.78125 36.28125 30.90625 
Q 34.578125 26.859375 31.375 24.265625 
Q 28.171875 21.6875 24.03125 21.6875 
Q 18.21875 21.6875 13.640625 24.828125 
Q 9.078125 27.984375 6.640625 33.125 
Q 4.203125 38.28125 4.203125 44.09375 
Q 4.203125 50.09375 6.9375 55.296875 
Q 9.671875 60.5 14.5 63.546875 
Q 19.34375 66.609375 25.484375 66.609375 
Q 31.546875 66.609375 35.625 63.3125 
Q 39.703125 60.015625 41.84375 54.8125 
Q 44 49.609375 44.84375 43.796875 
Q 45.703125 37.984375 45.703125 32.328125 
Q 45.703125 24.609375 42.875 16.578125 
Q 40.046875 8.546875 34.40625 3.171875 
Q 28.765625 -2.203125 20.796875 -2.203125 
Q 14.890625 -2.203125 10.78125 0.578125 
Q 6.6875 3.375 6.6875 8.984375 
Q 6.6875 11.03125 8.078125 12.421875 
Q 9.46875 13.8125 11.53125 13.8125 
Q 13.53125 13.8125 14.921875 12.421875 
Q 16.3125 11.03125 16.3125 8.984375 
Q 16.3125 7.03125 14.890625 5.609375 
Q 13.484375 4.203125 11.53125 4.203125 
z
M 24.421875 24.3125 
Q 28.515625 24.3125 31.125 27.0625 
Q 33.734375 29.828125 34.90625 33.921875 
Q 36.078125 38.03125 36.078125 42.09375 
L 36.078125 44 
L 36.078125 44.390625 
Q 36.078125 51.90625 33.875 57.8125 
Q 31.6875 63.71875 25.484375 63.71875 
Q 21.53125 63.71875 19.0625 61.984375 
Q 16.609375 60.25 15.4375 57.375 
Q 14.265625 54.5 13.9375 51.21875 
Q 13.625 47.953125 13.625 44.09375 
Q 13.625 38.421875 14.15625 34.421875 
Q 14.703125 30.421875 17.09375 27.359375 
Q 19.484375 24.3125 24.421875 24.3125 
" id="Cmr10-39"/>
     <path d="M 4.203125 15.1875 
Q 4.203125 21.1875 8.15625 25.796875 
Q 12.109375 30.421875 18.3125 33.5 
L 14.59375 35.890625 
Q 11.1875 38.140625 9.03125 41.875 
Q 6.890625 45.609375 6.890625 49.703125 
Q 6.890625 54.5 9.40625 58.34375 
Q 11.921875 62.203125 16.09375 64.40625 
Q 20.265625 66.609375 25 66.609375 
Q 29.4375 66.609375 33.5625 64.796875 
Q 37.703125 62.984375 40.359375 59.609375 
Q 43.015625 56.25 43.015625 51.609375 
Q 43.015625 48.25 41.421875 45.359375 
Q 39.84375 42.484375 37.078125 40.1875 
Q 34.328125 37.890625 31.203125 36.28125 
L 36.921875 32.625 
Q 40.875 30.03125 43.28125 25.828125 
Q 45.703125 21.625 45.703125 17 
Q 45.703125 11.578125 42.796875 7.125 
Q 39.890625 2.6875 35.109375 0.234375 
Q 30.328125 -2.203125 25 -2.203125 
Q 19.828125 -2.203125 15.015625 -0.09375 
Q 10.203125 2 7.203125 5.984375 
Q 4.203125 9.96875 4.203125 15.1875 
M 9.625 15.1875 
Q 9.625 11.234375 11.796875 7.953125 
Q 13.96875 4.6875 17.53125 2.828125 
Q 21.09375 0.984375 25 0.984375 
Q 30.8125 0.984375 35.546875 4.375 
Q 40.28125 7.765625 40.28125 13.375 
Q 40.28125 15.28125 39.515625 17.15625 
Q 38.765625 19.046875 37.421875 20.578125 
Q 36.078125 22.125 34.421875 23.09375 
L 21 31.78125 
Q 17.875 30.125 15.25 27.578125 
Q 12.640625 25.046875 11.125 21.875 
Q 9.625 18.703125 9.625 15.1875 
M 16.5 45.703125 
L 28.609375 37.890625 
Q 32.8125 40.328125 35.5 43.796875 
Q 38.1875 47.265625 38.1875 51.609375 
Q 38.1875 54.984375 36.296875 57.78125 
Q 34.421875 60.59375 31.390625 62.15625 
Q 28.375 63.71875 24.90625 63.71875 
Q 21.875 63.71875 18.796875 62.546875 
Q 15.71875 61.375 13.71875 59.046875 
Q 11.71875 56.734375 11.71875 53.609375 
Q 11.71875 48.921875 16.5 45.703125 
" id="Cmr10-38"/>
     <path d="M 25 -2.203125 
Q 12.75 -2.203125 8.328125 7.875 
Q 3.90625 17.96875 3.90625 31.890625 
Q 3.90625 40.578125 5.484375 48.234375 
Q 7.078125 55.90625 11.78125 61.25 
Q 16.5 66.609375 25 66.609375 
Q 31.59375 66.609375 35.78125 63.375 
Q 39.984375 60.15625 42.1875 55.046875 
Q 44.390625 49.953125 45.1875 44.109375 
Q 46 38.28125 46 31.890625 
Q 46 23.296875 44.40625 15.796875 
Q 42.828125 8.296875 38.1875 3.046875 
Q 33.546875 -2.203125 25 -2.203125 
M 25 0.390625 
Q 30.5625 0.390625 33.296875 6.09375 
Q 36.03125 11.8125 36.671875 18.75 
Q 37.3125 25.6875 37.3125 33.5 
Q 37.3125 41.015625 36.671875 47.359375 
Q 36.03125 53.71875 33.3125 58.859375 
Q 30.609375 64.015625 25 64.015625 
Q 19.34375 64.015625 16.609375 58.828125 
Q 13.875 53.65625 13.234375 47.328125 
Q 12.59375 41.015625 12.59375 33.5 
Q 12.59375 27.9375 12.859375 23 
Q 13.140625 18.0625 14.3125 12.8125 
Q 15.484375 7.5625 18.09375 3.96875 
Q 20.703125 0.390625 25 0.390625 
" id="Cmr10-30"/>
     <path d="M 10.796875 11.625 
Q 10.796875 13.71875 11.359375 16.453125 
Q 11.921875 19.1875 12.59375 21.3125 
Q 13.28125 23.4375 14.90625 27.828125 
Q 16.546875 32.234375 16.703125 32.625 
Q 18.015625 36.28125 18.015625 38.625 
Q 18.015625 41.609375 15.828125 41.609375 
Q 11.859375 41.609375 9.296875 37.53125 
Q 6.734375 33.453125 5.515625 28.421875 
Q 5.328125 27.78125 4.6875 27.78125 
L 3.515625 27.78125 
Q 2.6875 27.78125 2.6875 28.71875 
L 2.6875 29 
Q 4.296875 34.96875 7.609375 39.578125 
Q 10.9375 44.1875 16.015625 44.1875 
Q 19.578125 44.1875 22.046875 41.84375 
Q 24.515625 39.5 24.515625 35.890625 
Q 24.515625 34.03125 23.6875 31.984375 
Q 22.515625 28.953125 20.921875 24.703125 
Q 19.34375 20.453125 18.453125 16.984375 
Q 17.578125 13.53125 17.578125 10.296875 
Q 17.578125 6.390625 19.625 3.953125 
Q 21.6875 1.515625 25.59375 1.515625 
Q 30.90625 1.515625 34.421875 9.625 
Q 34.28125 10.203125 34.28125 11.28125 
Q 34.28125 13.96875 35.109375 17.390625 
L 40.71875 39.890625 
Q 41.0625 41.21875 42.28125 42.15625 
Q 43.5 43.109375 44.921875 43.109375 
Q 46.09375 43.109375 47 42.328125 
Q 47.90625 41.546875 47.90625 40.28125 
Q 47.90625 39.703125 47.796875 39.5 
L 42.1875 17.1875 
Q 41.21875 13.1875 41.21875 10.015625 
Q 41.21875 6.25 42.9375 3.875 
Q 44.671875 1.515625 48.390625 1.515625 
Q 54.828125 1.515625 58.984375 10.015625 
Q 60.546875 13.03125 62.46875 18.9375 
Q 64.40625 24.859375 64.40625 27.984375 
Q 64.40625 30.859375 63.46875 32.546875 
Q 62.546875 34.234375 60.90625 36.1875 
Q 59.28125 38.140625 59.28125 39.109375 
Q 59.28125 41.015625 60.90625 42.640625 
Q 62.546875 44.28125 64.5 44.28125 
Q 66.890625 44.28125 67.9375 42.078125 
Q 69 39.890625 69 37.109375 
Q 69 33.734375 67.875 28.53125 
Q 66.75 23.34375 65.03125 18.09375 
Q 63.328125 12.84375 61.8125 9.71875 
Q 56.34375 -1.125 48.1875 -1.125 
Q 44 -1.125 40.53125 0.484375 
Q 37.0625 2.09375 35.40625 5.609375 
Q 33.796875 2.734375 31.171875 0.796875 
Q 28.5625 -1.125 25.390625 -1.125 
Q 18.796875 -1.125 14.796875 2.015625 
Q 10.796875 5.171875 10.796875 11.625 
" id="Cmmi10-77"/>
     <path d="M 7.515625 13.28125 
Q 6.6875 13.28125 6.140625 13.90625 
Q 5.609375 14.546875 5.609375 15.28125 
Q 5.609375 16.109375 6.140625 16.6875 
Q 6.6875 17.28125 7.515625 17.28125 
L 70.3125 17.28125 
Q 71.046875 17.28125 71.578125 16.6875 
Q 72.125 16.109375 72.125 15.28125 
Q 72.125 14.546875 71.578125 13.90625 
Q 71.046875 13.28125 70.3125 13.28125 
z
M 7.515625 32.71875 
Q 6.6875 32.71875 6.140625 33.296875 
Q 5.609375 33.890625 5.609375 34.71875 
Q 5.609375 35.453125 6.140625 36.078125 
Q 6.6875 36.71875 7.515625 36.71875 
L 70.3125 36.71875 
Q 71.046875 36.71875 71.578125 36.078125 
Q 72.125 35.453125 72.125 34.71875 
Q 72.125 33.890625 71.578125 33.296875 
Q 71.046875 32.71875 70.3125 32.71875 
z
" id="Cmr10-3d"/>
     <path d="M 2.78125 16.5 
L 2.78125 20.015625 
L 33.6875 66.109375 
Q 34.03125 66.609375 34.71875 66.609375 
L 36.1875 66.609375 
Q 37.3125 66.609375 37.3125 65.484375 
L 37.3125 20.015625 
L 47.125 20.015625 
L 47.125 16.5 
L 37.3125 16.5 
L 37.3125 6.6875 
Q 37.3125 4.640625 40.234375 4.078125 
Q 43.171875 3.515625 47.015625 3.515625 
L 47.015625 0 
L 19.484375 0 
L 19.484375 3.515625 
Q 23.34375 3.515625 26.265625 4.078125 
Q 29.203125 4.640625 29.203125 6.6875 
L 29.203125 16.5 
z
M 6.109375 20.015625 
L 29.78125 20.015625 
L 29.78125 55.421875 
z
" id="Cmr10-34"/>
     <path d="M 8.40625 5.515625 
Q 8.40625 7.765625 10.0625 9.375 
Q 11.71875 10.984375 13.921875 10.984375 
Q 15.28125 10.984375 16.59375 10.25 
Q 17.921875 9.515625 18.65625 8.203125 
Q 19.390625 6.890625 19.390625 5.515625 
Q 19.390625 3.328125 17.765625 1.65625 
Q 16.15625 0 13.921875 0 
Q 11.71875 0 10.0625 1.65625 
Q 8.40625 3.328125 8.40625 5.515625 
" id="Cmmi10-3a"/>
    </defs>
    <g transform="translate(47.2375 240.12)scale(0.2 -0.2)">
     <use xlink:href="#Cmmi10-77"/>
     <use transform="translate(71.484375 -17.00625)scale(0.7)" xlink:href="#Cmr10-30"/>
     <use transform="translate(130.4203125 0.0)" xlink:href="#Cmr10-3d"/>
     <use transform="translate(225.664453125 0.0)" xlink:href="#Cmr10-5b"/>
     <use transform="translate(270.90859375 0.0)" xlink:href="#Cmsy10-a1"/>
     <use transform="translate(366.152734375 0.0)" xlink:href="#Cmr10-30"/>
     <use transform="translate(416.152734375 0.0)" xlink:href="#Cmmi10-3a"/>
     <use transform="translate(461.396875 0.0)" xlink:href="#Cmr10-39"/>
     <use transform="translate(511.396875 0.0)" xlink:href="#Cmr10-35"/>
     <use transform="translate(561.396875 0.0)" xlink:href="#Cmr10-38"/>
     <use transform="translate(611.396875 0.0)" xlink:href="#Cmr10-32"/>
     <use transform="translate(661.396875 0.0)" xlink:href="#Cmr10-35"/>
     <use transform="translate(711.396875 0.0)" xlink:href="#Cmr10-34"/>
     <use transform="translate(761.396875 0.0)" xlink:href="#Cmr10-37"/>
     <use transform="translate(811.396875 0.0)" xlink:href="#Cmr10-35"/>
     <use transform="translate(861.396875 0.0)" xlink:href="#Cmr10-5d"/>
    </g>
   </g>
   <g id="text_15">
    <!-- $w_1 = [-0.33732275]$ -->
    <defs>
     <path d="M 9.515625 7.71875 
Q 11.859375 4.296875 15.8125 2.640625 
Q 19.78125 0.984375 24.3125 0.984375 
Q 30.125 0.984375 32.5625 5.9375 
Q 35.015625 10.890625 35.015625 17.1875 
Q 35.015625 20.015625 34.5 22.84375 
Q 33.984375 25.6875 32.765625 28.125 
Q 31.546875 30.5625 29.421875 32.03125 
Q 27.296875 33.5 24.21875 33.5 
L 17.578125 33.5 
Q 16.703125 33.5 16.703125 34.421875 
L 16.703125 35.296875 
Q 16.703125 36.078125 17.578125 36.078125 
L 23.09375 36.53125 
Q 26.609375 36.53125 28.921875 39.15625 
Q 31.25 41.796875 32.328125 45.578125 
Q 33.40625 49.359375 33.40625 52.78125 
Q 33.40625 57.5625 31.15625 60.640625 
Q 28.90625 63.71875 24.3125 63.71875 
Q 20.515625 63.71875 17.046875 62.28125 
Q 13.578125 60.84375 11.53125 57.90625 
Q 11.71875 57.953125 11.859375 57.984375 
Q 12.015625 58.015625 12.203125 58.015625 
Q 14.453125 58.015625 15.96875 56.453125 
Q 17.484375 54.890625 17.484375 52.6875 
Q 17.484375 50.53125 15.96875 48.96875 
Q 14.453125 47.40625 12.203125 47.40625 
Q 10.015625 47.40625 8.453125 48.96875 
Q 6.890625 50.53125 6.890625 52.6875 
Q 6.890625 56.984375 9.46875 60.15625 
Q 12.0625 63.328125 16.140625 64.96875 
Q 20.21875 66.609375 24.3125 66.609375 
Q 27.34375 66.609375 30.703125 65.703125 
Q 34.078125 64.796875 36.8125 63.109375 
Q 39.546875 61.421875 41.28125 58.78125 
Q 43.015625 56.15625 43.015625 52.78125 
Q 43.015625 48.578125 41.140625 45.015625 
Q 39.265625 41.453125 35.984375 38.859375 
Q 32.71875 36.28125 28.8125 35.015625 
Q 33.15625 34.1875 37.0625 31.734375 
Q 40.96875 29.296875 43.328125 25.484375 
Q 45.703125 21.6875 45.703125 17.28125 
Q 45.703125 11.765625 42.671875 7.296875 
Q 39.65625 2.828125 34.71875 0.3125 
Q 29.78125 -2.203125 24.3125 -2.203125 
Q 19.625 -2.203125 14.90625 -0.40625 
Q 10.203125 1.375 7.203125 4.9375 
Q 4.203125 8.5 4.203125 13.484375 
Q 4.203125 15.96875 5.859375 17.625 
Q 7.515625 19.28125 10.015625 19.28125 
Q 11.625 19.28125 12.96875 18.53125 
Q 14.3125 17.78125 15.0625 16.40625 
Q 15.828125 15.046875 15.828125 13.484375 
Q 15.828125 11.03125 14.109375 9.375 
Q 12.40625 7.71875 10.015625 7.71875 
z
" id="Cmr10-33"/>
     <path d="M 9.28125 0 
L 9.28125 3.515625 
Q 21.78125 3.515625 21.78125 6.6875 
L 21.78125 59.1875 
Q 16.609375 56.6875 8.6875 56.6875 
L 8.6875 60.203125 
Q 20.953125 60.203125 27.203125 66.609375 
L 28.609375 66.609375 
Q 28.953125 66.609375 29.265625 66.328125 
Q 29.59375 66.0625 29.59375 65.71875 
L 29.59375 6.6875 
Q 29.59375 3.515625 42.09375 3.515625 
L 42.09375 0 
z
" id="Cmr10-31"/>
    </defs>
    <g transform="translate(169.3 148.05)scale(0.2 -0.2)">
     <use xlink:href="#Cmmi10-77"/>
     <use transform="translate(71.484375 -17.00625)scale(0.7)" xlink:href="#Cmr10-31"/>
     <use transform="translate(130.4203125 0.0)" xlink:href="#Cmr10-3d"/>
     <use transform="translate(225.664453125 0.0)" xlink:href="#Cmr10-5b"/>
     <use transform="translate(270.90859375 0.0)" xlink:href="#Cmsy10-a1"/>
     <use transform="translate(366.152734375 0.0)" xlink:href="#Cmr10-30"/>
     <use transform="translate(416.152734375 0.0)" xlink:href="#Cmmi10-3a"/>
     <use transform="translate(461.396875 0.0)" xlink:href="#Cmr10-33"/>
     <use transform="translate(511.396875 0.0)" xlink:href="#Cmr10-33"/>
     <use transform="translate(561.396875 0.0)" xlink:href="#Cmr10-37"/>
     <use transform="translate(611.396875 0.0)" xlink:href="#Cmr10-33"/>
     <use transform="translate(661.396875 0.0)" xlink:href="#Cmr10-32"/>
     <use transform="translate(711.396875 0.0)" xlink:href="#Cmr10-32"/>
     <use transform="translate(761.396875 0.0)" xlink:href="#Cmr10-37"/>
     <use transform="translate(811.396875 0.0)" xlink:href="#Cmr10-35"/>
     <use transform="translate(861.396875 0.0)" xlink:href="#Cmr10-5d"/>
    </g>
   </g>
   <g id="text_16">
    <!-- $w_2 = [ 0.49863113]$ -->
    <defs>
     <path d="M 25 -2.203125 
Q 18.796875 -2.203125 14.640625 1.09375 
Q 10.5 4.390625 8.21875 9.640625 
Q 5.953125 14.890625 5.078125 20.65625 
Q 4.203125 26.421875 4.203125 32.328125 
Q 4.203125 40.234375 7.28125 48.1875 
Q 10.359375 56.15625 16.328125 61.375 
Q 22.3125 66.609375 30.515625 66.609375 
Q 33.9375 66.609375 36.890625 65.3125 
Q 39.84375 64.015625 41.53125 61.5 
Q 43.21875 58.984375 43.21875 55.421875 
Q 43.21875 53.375 41.828125 51.984375 
Q 40.4375 50.59375 38.375 50.59375 
Q 36.421875 50.59375 35 52 
Q 33.59375 53.421875 33.59375 55.421875 
Q 33.59375 57.375 35 58.78125 
Q 36.421875 60.203125 38.375 60.203125 
L 38.921875 60.203125 
Q 37.640625 62.015625 35.328125 62.859375 
Q 33.015625 63.71875 30.515625 63.71875 
Q 27.484375 63.71875 24.921875 62.390625 
Q 22.359375 61.078125 20.3125 58.828125 
Q 18.265625 56.59375 16.890625 53.875 
Q 15.53125 51.171875 14.765625 47.703125 
Q 14.015625 44.234375 13.8125 41.203125 
Q 13.625 38.1875 13.625 33.59375 
Q 15.375 37.703125 18.59375 40.3125 
Q 21.828125 42.921875 25.875 42.921875 
Q 30.328125 42.921875 33.984375 41.109375 
Q 37.640625 39.3125 40.28125 36.109375 
Q 42.921875 32.90625 44.3125 28.796875 
Q 45.703125 24.703125 45.703125 20.515625 
Q 45.703125 14.65625 43.09375 9.34375 
Q 40.484375 4.046875 35.734375 0.921875 
Q 31 -2.203125 25 -2.203125 
M 25 0.984375 
Q 28.859375 0.984375 31.203125 2.734375 
Q 33.546875 4.5 34.640625 7.390625 
Q 35.75 10.296875 36.015625 13.25 
Q 36.28125 16.21875 36.28125 20.515625 
Q 36.28125 26.171875 35.734375 30.171875 
Q 35.203125 34.1875 32.8125 37.234375 
Q 30.421875 40.28125 25.484375 40.28125 
Q 21.4375 40.28125 18.828125 37.546875 
Q 16.21875 34.8125 15.015625 30.640625 
Q 13.8125 26.46875 13.8125 22.609375 
Q 13.8125 21.296875 13.921875 20.609375 
Q 13.921875 20.453125 13.890625 20.359375 
Q 13.875 20.265625 13.8125 20.125 
Q 13.8125 15.828125 14.6875 11.421875 
Q 15.578125 7.03125 18.0625 4 
Q 20.5625 0.984375 25 0.984375 
" id="Cmr10-36"/>
    </defs>
    <g transform="translate(302.6625 240.12)scale(0.2 -0.2)">
     <use xlink:href="#Cmmi10-77"/>
     <use transform="translate(71.484375 -17.00625)scale(0.7)" xlink:href="#Cmr10-32"/>
     <use transform="translate(130.4203125 0.0)" xlink:href="#Cmr10-3d"/>
     <use transform="translate(225.664453125 0.0)" xlink:href="#Cmr10-5b"/>
     <use transform="translate(253.35 0.0)" xlink:href="#Cmr10-30"/>
     <use transform="translate(303.35 0.0)" xlink:href="#Cmmi10-3a"/>
     <use transform="translate(348.594140625 0.0)" xlink:href="#Cmr10-34"/>
     <use transform="translate(398.594140625 0.0)" xlink:href="#Cmr10-39"/>
     <use transform="translate(448.594140625 0.0)" xlink:href="#Cmr10-38"/>
     <use transform="translate(498.594140625 0.0)" xlink:href="#Cmr10-36"/>
     <use transform="translate(548.594140625 0.0)" xlink:href="#Cmr10-33"/>
     <use transform="translate(598.594140625 0.0)" xlink:href="#Cmr10-31"/>
     <use transform="translate(648.594140625 0.0)" xlink:href="#Cmr10-31"/>
     <use transform="translate(698.594140625 0.0)" xlink:href="#Cmr10-33"/>
     <use transform="translate(748.594140625 0.0)" xlink:href="#Cmr10-5d"/>
    </g>
   </g>
  </g>
 </g>
 <defs>
  <clipPath id="pd848286e33">
   <rect height="390.6" width="390.6" x="63.0" y="50.4"/>
  </clipPath>
 </defs>
</svg>
