<?xml version="1.0" encoding="utf-8" standalone="no"?>
<!DOCTYPE svg PUBLIC "-//W3C//DTD SVG 1.1//EN"
  "http://www.w3.org/Graphics/SVG/1.1/DTD/svg11.dtd">
<!-- Created with matplotlib (http://matplotlib.org/) -->
<svg height="504pt" version="1.1" viewBox="0 0 504 504" width="504pt" xmlns="http://www.w3.org/2000/svg" xmlns:xlink="http://www.w3.org/1999/xlink">
 <defs>
  <style type="text/css">
*{stroke-linecap:butt;stroke-linejoin:round;stroke-miterlimit:100000;}
  </style>
 </defs>
 <g id="figure_1">
  <g id="patch_1">
   <path d="M 0 504 
L 504 504 
L 504 0 
L 0 0 
z
" style="fill:#ffffff;"/>
  </g>
  <g id="axes_1">
   <g id="patch_2">
    <path d="M 63 441 
L 453.6 441 
L 453.6 50.4 
L 63 50.4 
z
" style="fill:#ffffff;"/>
   </g>
   <g id="line2d_1">
    <path clip-path="url(#pa840827038)" d="M 63 232.48451 
L 66.945455 230.217028 
L 70.890909 227.678561 
L 74.836364 224.860434 
L 78.781818 221.758467 
L 82.727273 218.373795 
L 86.672727 214.713625 
L 90.618182 210.791892 
L 94.563636 206.629775 
L 98.509091 202.25602 
L 102.454545 197.707057 
L 106.4 193.026857 
L 110.345455 188.266515 
L 114.290909 183.483557 
L 118.236364 178.740951 
L 122.181818 174.105864 
L 126.127273 169.648164 
L 130.072727 165.438728 
L 134.018182 161.54761 
L 137.963636 158.042122 
L 141.909091 154.984911 
L 145.854545 152.432102 
L 149.8 150.431588 
L 153.745455 149.021535 
L 157.690909 148.229174 
L 161.636364 148.069925 
L 165.581818 148.546895 
L 169.527273 149.650784 
L 173.472727 151.360179 
L 177.418182 153.642251 
L 181.363636 156.4538 
L 185.309091 159.742615 
L 189.254545 163.449085 
L 193.2 167.507993 
L 197.145455 171.850414 
L 201.090909 176.405646 
L 205.036364 181.103094 
L 208.981818 185.874042 
L 212.927273 190.653249 
L 216.872727 195.380328 
L 220.818182 200.000864 
L 224.763636 204.467254 
L 228.709091 208.739265 
L 232.654545 212.784305 
L 236.6 216.577441 
L 240.545455 220.101169 
L 244.490909 223.344993 
L 248.436364 226.304832 
L 252.381818 228.982305 
L 256.327273 231.383947 
L 260.272727 233.520365 
L 264.218182 235.405403 
L 268.163636 237.055328 
L 272.109091 238.488066 
L 276.054545 239.722507 
L 280 240.7779 
L 283.945455 241.673331 
L 287.890909 242.427305 
L 291.836364 243.057414 
L 295.781818 243.580093 
L 299.727273 244.010459 
L 303.672727 244.362221 
L 307.618182 244.64764 
L 311.563636 244.877552 
L 315.509091 245.061418 
L 319.454545 245.207406 
L 323.4 245.322493 
L 327.345455 245.412574 
L 331.290909 245.482585 
L 335.236364 245.536613 
L 339.181818 245.578014 
L 343.127273 245.609517 
L 347.072727 245.633321 
L 351.018182 245.651183 
L 354.963636 245.664492 
L 358.909091 245.674341 
L 362.854545 245.681579 
L 366.8 245.686861 
L 370.745455 245.69069 
L 374.690909 245.693446 
L 378.636364 245.695416 
L 382.581818 245.696815 
L 386.527273 245.697801 
L 390.472727 245.698492 
L 394.418182 245.698972 
L 398.363636 245.699304 
L 402.309091 245.699532 
L 406.254545 245.699687 
L 410.2 245.699792 
L 414.145455 245.699863 
L 418.090909 245.69991 
L 422.036364 245.699942 
L 425.981818 245.699962 
L 429.927273 245.699976 
L 433.872727 245.699985 
L 437.818182 245.69999 
L 441.763636 245.699994 
L 445.709091 245.699996 
L 449.654545 245.699998 
L 453.6 245.699999 
" style="fill:none;stroke:#ff0000;stroke-linecap:square;stroke-width:3.0;"/>
   </g>
   <g id="line2d_2">
    <path clip-path="url(#pa840827038)" d="M 63 245.667242 
L 66.945455 245.65489 
L 70.890909 245.638284 
L 74.836364 245.616114 
L 78.781818 245.586723 
L 82.727273 245.54803 
L 86.672727 245.497447 
L 90.618182 245.431785 
L 94.563636 245.347149 
L 98.509091 245.238827 
L 102.454545 245.101174 
L 106.4 244.927495 
L 110.345455 244.709929 
L 114.290909 244.439348 
L 118.236364 244.105265 
L 122.181818 243.695779 
L 126.127273 243.197541 
L 130.072727 242.595782 
L 134.018182 241.874381 
L 137.963636 241.016018 
L 141.909091 240.002389 
L 145.854545 238.814516 
L 149.8 237.433147 
L 153.745455 235.839248 
L 157.690909 234.014591 
L 161.636364 231.942424 
L 165.581818 229.608224 
L 169.527273 227.000494 
L 173.472727 224.111605 
L 177.418182 220.93863 
L 181.363636 217.484155 
L 185.309091 213.757013 
L 189.254545 209.772907 
L 193.2 205.554885 
L 197.145455 201.133614 
L 201.090909 196.547432 
L 205.036364 191.842141 
L 208.981818 187.070521 
L 212.927273 182.29156 
L 216.872727 177.569404 
L 220.818182 172.972044 
L 224.763636 168.569765 
L 228.709091 164.433415 
L 232.654545 160.632543 
L 236.6 157.233476 
L 240.545455 154.297397 
L 244.490909 151.878528 
L 248.436364 150.02246 
L 252.381818 148.764727 
L 256.327273 148.129674 
L 260.272727 148.129674 
L 264.218182 148.764727 
L 268.163636 150.02246 
L 272.109091 151.878528 
L 276.054545 154.297397 
L 280 157.233476 
L 283.945455 160.632543 
L 287.890909 164.433415 
L 291.836364 168.569765 
L 295.781818 172.972044 
L 299.727273 177.569404 
L 303.672727 182.29156 
L 307.618182 187.070521 
L 311.563636 191.842141 
L 315.509091 196.547432 
L 319.454545 201.133614 
L 323.4 205.554885 
L 327.345455 209.772907 
L 331.290909 213.757013 
L 335.236364 217.484155 
L 339.181818 220.93863 
L 343.127273 224.111605 
L 347.072727 227.000494 
L 351.018182 229.608224 
L 354.963636 231.942424 
L 358.909091 234.014591 
L 362.854545 235.839248 
L 366.8 237.433147 
L 370.745455 238.814516 
L 374.690909 240.002389 
L 378.636364 241.016018 
L 382.581818 241.874381 
L 386.527273 242.595782 
L 390.472727 243.197541 
L 394.418182 243.695779 
L 398.363636 244.105265 
L 402.309091 244.439348 
L 406.254545 244.709929 
L 410.2 244.927495 
L 414.145455 245.101174 
L 418.090909 245.238827 
L 422.036364 245.347149 
L 425.981818 245.431785 
L 429.927273 245.497447 
L 433.872727 245.54803 
L 437.818182 245.586723 
L 441.763636 245.616114 
L 445.709091 245.638284 
L 449.654545 245.65489 
L 453.6 245.667242 
" style="fill:none;stroke:#ff00ff;stroke-linecap:square;stroke-width:3.0;"/>
   </g>
   <g id="line2d_3">
    <path clip-path="url(#pa840827038)" d="M 63 245.699999 
L 66.945455 245.699998 
L 70.890909 245.699996 
L 74.836364 245.699994 
L 78.781818 245.69999 
L 82.727273 245.699985 
L 86.672727 245.699976 
L 90.618182 245.699962 
L 94.563636 245.699942 
L 98.509091 245.69991 
L 102.454545 245.699863 
L 106.4 245.699792 
L 110.345455 245.699687 
L 114.290909 245.699532 
L 118.236364 245.699304 
L 122.181818 245.698972 
L 126.127273 245.698492 
L 130.072727 245.697801 
L 134.018182 245.696815 
L 137.963636 245.695416 
L 141.909091 245.693446 
L 145.854545 245.69069 
L 149.8 245.686861 
L 153.745455 245.681579 
L 157.690909 245.674341 
L 161.636364 245.664492 
L 165.581818 245.651183 
L 169.527273 245.633321 
L 173.472727 245.609517 
L 177.418182 245.578014 
L 181.363636 245.536613 
L 185.309091 245.482585 
L 189.254545 245.412574 
L 193.2 245.322493 
L 197.145455 245.207406 
L 201.090909 245.061418 
L 205.036364 244.877552 
L 208.981818 244.64764 
L 212.927273 244.362221 
L 216.872727 244.010459 
L 220.818182 243.580093 
L 224.763636 243.057414 
L 228.709091 242.427305 
L 232.654545 241.673331 
L 236.6 240.7779 
L 240.545455 239.722507 
L 244.490909 238.488066 
L 248.436364 237.055328 
L 252.381818 235.405403 
L 256.327273 233.520365 
L 260.272727 231.383947 
L 264.218182 228.982305 
L 268.163636 226.304832 
L 272.109091 223.344993 
L 276.054545 220.101169 
L 280 216.577441 
L 283.945455 212.784305 
L 287.890909 208.739265 
L 291.836364 204.467254 
L 295.781818 200.000864 
L 299.727273 195.380328 
L 303.672727 190.653249 
L 307.618182 185.874042 
L 311.563636 181.103094 
L 315.509091 176.405646 
L 319.454545 171.850414 
L 323.4 167.507993 
L 327.345455 163.449085 
L 331.290909 159.742615 
L 335.236364 156.4538 
L 339.181818 153.642251 
L 343.127273 151.360179 
L 347.072727 149.650784 
L 351.018182 148.546895 
L 354.963636 148.069925 
L 358.909091 148.229174 
L 362.854545 149.021535 
L 366.8 150.431588 
L 370.745455 152.432102 
L 374.690909 154.984911 
L 378.636364 158.042122 
L 382.581818 161.54761 
L 386.527273 165.438728 
L 390.472727 169.648164 
L 394.418182 174.105864 
L 398.363636 178.740951 
L 402.309091 183.483557 
L 406.254545 188.266515 
L 410.2 193.026857 
L 414.145455 197.707057 
L 418.090909 202.25602 
L 422.036364 206.629775 
L 425.981818 210.791892 
L 429.927273 214.713625 
L 433.872727 218.373795 
L 437.818182 221.758467 
L 441.763636 224.860434 
L 445.709091 227.678561 
L 449.654545 230.217028 
L 453.6 232.48451 
" style="fill:none;stroke:#0000ff;stroke-linecap:square;stroke-width:3.0;"/>
   </g>
   <g id="patch_3">
    <path d="M 63 50.4 
L 453.6 50.4 
" style="fill:none;stroke:#000000;stroke-linecap:square;stroke-linejoin:miter;"/>
   </g>
   <g id="patch_4">
    <path d="M 453.6 441 
L 453.6 50.4 
" style="fill:none;stroke:#000000;stroke-linecap:square;stroke-linejoin:miter;"/>
   </g>
   <g id="patch_5">
    <path d="M 63 441 
L 453.6 441 
" style="fill:none;stroke:#000000;stroke-linecap:square;stroke-linejoin:miter;"/>
   </g>
   <g id="patch_6">
    <path d="M 63 441 
L 63 50.4 
" style="fill:none;stroke:#000000;stroke-linecap:square;stroke-linejoin:miter;"/>
   </g>
   <g id="matplotlib.axis_1">
    <g id="xtick_1">
     <g id="line2d_4">
      <defs>
       <path d="M 0 0 
L 0 -4 
" id="m36e91e136f" style="stroke:#000000;stroke-width:0.5;"/>
      </defs>
      <g>
       <use style="stroke:#000000;stroke-width:0.5;" x="160.65" xlink:href="#m36e91e136f" y="441.0"/>
      </g>
     </g>
     <g id="line2d_5">
      <defs>
       <path d="M 0 0 
L 0 4 
" id="m9916b0cda6" style="stroke:#000000;stroke-width:0.5;"/>
      </defs>
      <g>
       <use style="stroke:#000000;stroke-width:0.5;" x="160.65" xlink:href="#m9916b0cda6" y="50.4"/>
      </g>
     </g>
     <g id="text_1">
      <!-- −1 -->
      <defs>
       <path d="M 10.59375 35.5 
L 73.1875 35.5 
L 73.1875 27.203125 
L 10.59375 27.203125 
z
" id="BitstreamVeraSans-Roman-2212"/>
       <path d="M 12.40625 8.296875 
L 28.515625 8.296875 
L 28.515625 63.921875 
L 10.984375 60.40625 
L 10.984375 69.390625 
L 28.421875 72.90625 
L 38.28125 72.90625 
L 38.28125 8.296875 
L 54.390625 8.296875 
L 54.390625 0 
L 12.40625 0 
z
" id="BitstreamVeraSans-Roman-31"/>
      </defs>
      <g transform="translate(153.27890625 452.5984375)scale(0.1 -0.1)">
       <use xlink:href="#BitstreamVeraSans-Roman-2212"/>
       <use x="83.7890625" xlink:href="#BitstreamVeraSans-Roman-31"/>
      </g>
     </g>
    </g>
    <g id="xtick_2">
     <g id="line2d_6">
      <g>
       <use style="stroke:#000000;stroke-width:0.5;" x="258.3" xlink:href="#m36e91e136f" y="441.0"/>
      </g>
     </g>
     <g id="line2d_7">
      <g>
       <use style="stroke:#000000;stroke-width:0.5;" x="258.3" xlink:href="#m9916b0cda6" y="50.4"/>
      </g>
     </g>
     <g id="text_2">
      <!-- 0 -->
      <defs>
       <path d="M 31.78125 66.40625 
Q 24.171875 66.40625 20.328125 58.90625 
Q 16.5 51.421875 16.5 36.375 
Q 16.5 21.390625 20.328125 13.890625 
Q 24.171875 6.390625 31.78125 6.390625 
Q 39.453125 6.390625 43.28125 13.890625 
Q 47.125 21.390625 47.125 36.375 
Q 47.125 51.421875 43.28125 58.90625 
Q 39.453125 66.40625 31.78125 66.40625 
M 31.78125 74.21875 
Q 44.046875 74.21875 50.515625 64.515625 
Q 56.984375 54.828125 56.984375 36.375 
Q 56.984375 17.96875 50.515625 8.265625 
Q 44.046875 -1.421875 31.78125 -1.421875 
Q 19.53125 -1.421875 13.0625 8.265625 
Q 6.59375 17.96875 6.59375 36.375 
Q 6.59375 54.828125 13.0625 64.515625 
Q 19.53125 74.21875 31.78125 74.21875 
" id="BitstreamVeraSans-Roman-30"/>
      </defs>
      <g transform="translate(255.11875 452.5984375)scale(0.1 -0.1)">
       <use xlink:href="#BitstreamVeraSans-Roman-30"/>
      </g>
     </g>
    </g>
    <g id="xtick_3">
     <g id="line2d_8">
      <g>
       <use style="stroke:#000000;stroke-width:0.5;" x="355.95" xlink:href="#m36e91e136f" y="441.0"/>
      </g>
     </g>
     <g id="line2d_9">
      <g>
       <use style="stroke:#000000;stroke-width:0.5;" x="355.95" xlink:href="#m9916b0cda6" y="50.4"/>
      </g>
     </g>
     <g id="text_3">
      <!-- 1 -->
      <g transform="translate(352.76875 452.5984375)scale(0.1 -0.1)">
       <use xlink:href="#BitstreamVeraSans-Roman-31"/>
      </g>
     </g>
    </g>
    <g id="text_4">
     <!-- $x$ -->
     <defs>
      <path d="M 7.8125 2.875 
Q 9.578125 1.515625 12.796875 1.515625 
Q 15.921875 1.515625 18.3125 4.515625 
Q 20.703125 7.515625 21.578125 11.078125 
L 26.125 28.8125 
Q 27.203125 33.640625 27.203125 35.40625 
Q 27.203125 37.890625 25.8125 39.75 
Q 24.421875 41.609375 21.921875 41.609375 
Q 18.75 41.609375 15.96875 39.625 
Q 13.1875 37.640625 11.28125 34.59375 
Q 9.375 31.546875 8.59375 28.421875 
Q 8.40625 27.78125 7.8125 27.78125 
L 6.59375 27.78125 
Q 5.8125 27.78125 5.8125 28.71875 
L 5.8125 29 
Q 6.78125 32.71875 9.125 36.25 
Q 11.46875 39.796875 14.859375 41.984375 
Q 18.265625 44.1875 22.125 44.1875 
Q 25.78125 44.1875 28.734375 42.234375 
Q 31.6875 40.28125 32.90625 36.921875 
Q 34.625 39.984375 37.28125 42.078125 
Q 39.9375 44.1875 43.109375 44.1875 
Q 45.265625 44.1875 47.5 43.421875 
Q 49.75 42.671875 51.171875 41.109375 
Q 52.59375 39.546875 52.59375 37.203125 
Q 52.59375 34.671875 50.953125 32.828125 
Q 49.3125 31 46.78125 31 
Q 45.171875 31 44.09375 32.03125 
Q 43.015625 33.0625 43.015625 34.625 
Q 43.015625 36.71875 44.453125 38.296875 
Q 45.90625 39.890625 47.90625 40.1875 
Q 46.09375 41.609375 42.921875 41.609375 
Q 39.703125 41.609375 37.328125 38.625 
Q 34.96875 35.640625 33.984375 31.984375 
L 29.59375 14.3125 
Q 28.515625 10.296875 28.515625 7.71875 
Q 28.515625 5.171875 29.953125 3.34375 
Q 31.390625 1.515625 33.796875 1.515625 
Q 38.484375 1.515625 42.15625 5.640625 
Q 45.84375 9.765625 47.015625 14.703125 
Q 47.21875 15.28125 47.796875 15.28125 
L 49.03125 15.28125 
Q 49.421875 15.28125 49.65625 15.015625 
Q 49.90625 14.75 49.90625 14.40625 
Q 49.90625 14.3125 49.8125 14.109375 
Q 48.390625 8.15625 43.84375 3.515625 
Q 39.3125 -1.125 33.59375 -1.125 
Q 29.9375 -1.125 26.984375 0.84375 
Q 24.03125 2.828125 22.796875 6.203125 
Q 21.234375 3.265625 18.46875 1.0625 
Q 15.71875 -1.125 12.59375 -1.125 
Q 10.453125 -1.125 8.171875 -0.359375 
Q 5.90625 0.390625 4.484375 1.953125 
Q 3.078125 3.515625 3.078125 5.90625 
Q 3.078125 8.25 4.703125 10.171875 
Q 6.34375 12.109375 8.796875 12.109375 
Q 10.453125 12.109375 11.578125 11.109375 
Q 12.703125 10.109375 12.703125 8.5 
Q 12.703125 6.390625 11.296875 4.828125 
Q 9.90625 3.265625 7.8125 2.875 
" id="Cmmi10-78"/>
     </defs>
     <g transform="translate(252.5 474.875)scale(0.2 -0.2)">
      <use transform="translate(0.0 0.8125)" xlink:href="#Cmmi10-78"/>
     </g>
    </g>
   </g>
   <g id="matplotlib.axis_2">
    <g id="ytick_1">
     <g id="line2d_10">
      <defs>
       <path d="M 0 0 
L 4 0 
" id="m9ddc7bb4c9" style="stroke:#000000;stroke-width:0.5;"/>
      </defs>
      <g>
       <use style="stroke:#000000;stroke-width:0.5;" x="63.0" xlink:href="#m9ddc7bb4c9" y="441.0"/>
      </g>
     </g>
     <g id="line2d_11">
      <defs>
       <path d="M 0 0 
L -4 0 
" id="mc6796924c3" style="stroke:#000000;stroke-width:0.5;"/>
      </defs>
      <g>
       <use style="stroke:#000000;stroke-width:0.5;" x="453.6" xlink:href="#mc6796924c3" y="441.0"/>
      </g>
     </g>
     <g id="text_5">
      <!-- −2 -->
      <defs>
       <path d="M 19.1875 8.296875 
L 53.609375 8.296875 
L 53.609375 0 
L 7.328125 0 
L 7.328125 8.296875 
Q 12.9375 14.109375 22.625 23.890625 
Q 32.328125 33.6875 34.8125 36.53125 
Q 39.546875 41.84375 41.421875 45.53125 
Q 43.3125 49.21875 43.3125 52.78125 
Q 43.3125 58.59375 39.234375 62.25 
Q 35.15625 65.921875 28.609375 65.921875 
Q 23.96875 65.921875 18.8125 64.3125 
Q 13.671875 62.703125 7.8125 59.421875 
L 7.8125 69.390625 
Q 13.765625 71.78125 18.9375 73 
Q 24.125 74.21875 28.421875 74.21875 
Q 39.75 74.21875 46.484375 68.546875 
Q 53.21875 62.890625 53.21875 53.421875 
Q 53.21875 48.921875 51.53125 44.890625 
Q 49.859375 40.875 45.40625 35.40625 
Q 44.1875 33.984375 37.640625 27.21875 
Q 31.109375 20.453125 19.1875 8.296875 
" id="BitstreamVeraSans-Roman-32"/>
      </defs>
      <g transform="translate(44.2578125 443.759375)scale(0.1 -0.1)">
       <use xlink:href="#BitstreamVeraSans-Roman-2212"/>
       <use x="83.7890625" xlink:href="#BitstreamVeraSans-Roman-32"/>
      </g>
     </g>
    </g>
    <g id="ytick_2">
     <g id="line2d_12">
      <g>
       <use style="stroke:#000000;stroke-width:0.5;" x="63.0" xlink:href="#m9ddc7bb4c9" y="343.35"/>
      </g>
     </g>
     <g id="line2d_13">
      <g>
       <use style="stroke:#000000;stroke-width:0.5;" x="453.6" xlink:href="#mc6796924c3" y="343.35"/>
      </g>
     </g>
     <g id="text_6">
      <!-- −1 -->
      <g transform="translate(44.2578125 346.109375)scale(0.1 -0.1)">
       <use xlink:href="#BitstreamVeraSans-Roman-2212"/>
       <use x="83.7890625" xlink:href="#BitstreamVeraSans-Roman-31"/>
      </g>
     </g>
    </g>
    <g id="ytick_3">
     <g id="line2d_14">
      <g>
       <use style="stroke:#000000;stroke-width:0.5;" x="63.0" xlink:href="#m9ddc7bb4c9" y="245.7"/>
      </g>
     </g>
     <g id="line2d_15">
      <g>
       <use style="stroke:#000000;stroke-width:0.5;" x="453.6" xlink:href="#mc6796924c3" y="245.7"/>
      </g>
     </g>
     <g id="text_7">
      <!-- 0 -->
      <g transform="translate(52.6375 248.459375)scale(0.1 -0.1)">
       <use xlink:href="#BitstreamVeraSans-Roman-30"/>
      </g>
     </g>
    </g>
    <g id="ytick_4">
     <g id="line2d_16">
      <g>
       <use style="stroke:#000000;stroke-width:0.5;" x="63.0" xlink:href="#m9ddc7bb4c9" y="148.05"/>
      </g>
     </g>
     <g id="line2d_17">
      <g>
       <use style="stroke:#000000;stroke-width:0.5;" x="453.6" xlink:href="#mc6796924c3" y="148.05"/>
      </g>
     </g>
     <g id="text_8">
      <!-- 1 -->
      <g transform="translate(52.6375 150.809375)scale(0.1 -0.1)">
       <use xlink:href="#BitstreamVeraSans-Roman-31"/>
      </g>
     </g>
    </g>
    <g id="ytick_5">
     <g id="line2d_18">
      <g>
       <use style="stroke:#000000;stroke-width:0.5;" x="63.0" xlink:href="#m9ddc7bb4c9" y="50.4"/>
      </g>
     </g>
     <g id="line2d_19">
      <g>
       <use style="stroke:#000000;stroke-width:0.5;" x="453.6" xlink:href="#mc6796924c3" y="50.4"/>
      </g>
     </g>
     <g id="text_9">
      <!-- 2 -->
      <g transform="translate(52.6375 53.159375)scale(0.1 -0.1)">
       <use xlink:href="#BitstreamVeraSans-Roman-32"/>
      </g>
     </g>
    </g>
    <g id="text_10">
     <!-- $\phi(x)$ -->
     <defs>
      <path d="M 31 -24.8125 
Q 25.4375 -20.40625 21.40625 -14.71875 
Q 17.390625 -9.03125 14.8125 -2.578125 
Q 12.25 3.859375 10.984375 10.890625 
Q 9.71875 17.921875 9.71875 25 
Q 9.71875 32.171875 10.984375 39.203125 
Q 12.25 46.234375 14.859375 52.734375 
Q 17.484375 59.234375 21.53125 64.890625 
Q 25.59375 70.5625 31 74.8125 
Q 31 75 31.5 75 
L 32.421875 75 
Q 32.71875 75 32.953125 74.734375 
Q 33.203125 74.46875 33.203125 74.125 
Q 33.203125 73.6875 33.015625 73.484375 
Q 28.125 68.703125 24.875 63.234375 
Q 21.625 57.765625 19.640625 51.578125 
Q 17.671875 45.40625 16.796875 38.78125 
Q 15.921875 32.171875 15.921875 25 
Q 15.921875 -6.78125 32.90625 -23.296875 
Q 33.203125 -23.578125 33.203125 -24.125 
Q 33.203125 -24.359375 32.9375 -24.671875 
Q 32.671875 -25 32.421875 -25 
L 31.5 -25 
Q 31 -25 31 -24.8125 
" id="Cmr10-28"/>
      <path d="M 6.5 -25 
Q 5.609375 -25 5.609375 -24.125 
Q 5.609375 -23.6875 5.8125 -23.484375 
Q 22.90625 -6.78125 22.90625 25 
Q 22.90625 56.78125 6 73.296875 
Q 5.609375 73.53125 5.609375 74.125 
Q 5.609375 74.46875 5.875 74.734375 
Q 6.15625 75 6.5 75 
L 7.421875 75 
Q 7.71875 75 7.90625 74.8125 
Q 15.09375 69.140625 19.875 61.03125 
Q 24.65625 52.9375 26.875 43.75 
Q 29.109375 34.578125 29.109375 25 
Q 29.109375 17.921875 27.90625 11.0625 
Q 26.703125 4.203125 24.09375 -2.453125 
Q 21.484375 -9.125 17.484375 -14.765625 
Q 13.484375 -20.40625 7.90625 -24.8125 
Q 7.71875 -25 7.421875 -25 
z
" id="Cmr10-29"/>
      <path d="M 19.390625 -19.484375 
L 23.875 -1.421875 
Q 18.796875 -1.421875 14.40625 0.953125 
Q 10.015625 3.328125 7.34375 7.5625 
Q 4.6875 11.8125 4.6875 16.796875 
Q 4.6875 22.21875 7.375 27.140625 
Q 10.0625 32.078125 14.71875 36.109375 
Q 19.390625 40.140625 24.75 42.3125 
Q 30.125 44.484375 35.40625 44.484375 
L 41.40625 68.796875 
Q 41.609375 69.390625 42.1875 69.390625 
L 43.40625 69.390625 
Q 43.796875 69.390625 44.03125 69.046875 
Q 44.28125 68.703125 44.28125 68.40625 
L 38.28125 44.484375 
Q 42.046875 44.484375 45.5625 43.109375 
Q 49.078125 41.75 51.78125 39.28125 
Q 54.5 36.8125 56 33.46875 
Q 57.515625 30.125 57.515625 26.3125 
Q 57.515625 20.90625 54.828125 15.96875 
Q 52.15625 11.03125 47.609375 7.078125 
Q 43.0625 3.125 37.46875 0.84375 
Q 31.890625 -1.421875 26.8125 -1.421875 
L 22.21875 -19.921875 
Q 22.015625 -20.515625 21.390625 -20.515625 
L 20.21875 -20.515625 
Q 19.828125 -20.515625 19.609375 -20.140625 
Q 19.390625 -19.78125 19.390625 -19.484375 
M 24.515625 1.21875 
L 34.71875 41.890625 
Q 32.171875 41.890625 29.390625 40.859375 
Q 26.609375 39.84375 24.140625 38.28125 
Q 21.6875 36.71875 19.671875 34.71875 
Q 17.234375 32.28125 15.375 28.953125 
Q 13.53125 25.640625 12.578125 21.953125 
Q 11.625 18.265625 11.625 14.703125 
Q 11.625 10.9375 13.234375 7.859375 
Q 14.84375 4.78125 17.765625 3 
Q 20.703125 1.21875 24.515625 1.21875 
M 27.484375 1.21875 
Q 31.25 1.21875 35.5 3.359375 
Q 39.75 5.515625 42.484375 8.40625 
Q 46.234375 12.109375 48.40625 17.5 
Q 50.59375 22.90625 50.59375 28.421875 
Q 50.59375 32.125 48.96875 35.21875 
Q 47.359375 38.328125 44.421875 40.109375 
Q 41.5 41.890625 37.703125 41.890625 
z
" id="Cmmi10-c1"/>
     </defs>
     <g transform="translate(34.2578125 265.2)rotate(-90.0)scale(0.2 -0.2)">
      <use xlink:href="#Cmmi10-c1"/>
      <use transform="translate(59.521484375 0.0)" xlink:href="#Cmr10-28"/>
      <use transform="translate(98.33984375 0.0)" xlink:href="#Cmmi10-78"/>
      <use transform="translate(155.419921875 0.0)" xlink:href="#Cmr10-29"/>
     </g>
    </g>
   </g>
   <g id="text_11">
    <!-- $\phi_1(x) = e^{-(x + 1)^2}$ -->
    <defs>
     <path d="M 4.984375 0 
L 4.984375 2.6875 
Q 4.984375 2.9375 5.171875 3.21875 
L 20.703125 20.40625 
Q 24.21875 24.21875 26.40625 26.796875 
Q 28.609375 29.390625 30.75 32.765625 
Q 32.90625 36.140625 34.15625 39.625 
Q 35.40625 43.109375 35.40625 47.015625 
Q 35.40625 51.125 33.890625 54.859375 
Q 32.375 58.59375 29.375 60.84375 
Q 26.375 63.09375 22.125 63.09375 
Q 17.78125 63.09375 14.3125 60.46875 
Q 10.84375 57.859375 9.421875 53.71875 
Q 9.8125 53.8125 10.5 53.8125 
Q 12.75 53.8125 14.328125 52.296875 
Q 15.921875 50.78125 15.921875 48.390625 
Q 15.921875 46.09375 14.328125 44.5 
Q 12.75 42.921875 10.5 42.921875 
Q 8.15625 42.921875 6.5625 44.546875 
Q 4.984375 46.1875 4.984375 48.390625 
Q 4.984375 52.15625 6.390625 55.4375 
Q 7.8125 58.734375 10.46875 61.296875 
Q 13.140625 63.875 16.484375 65.234375 
Q 19.828125 66.609375 23.578125 66.609375 
Q 29.296875 66.609375 34.21875 64.1875 
Q 39.15625 61.765625 42.03125 57.34375 
Q 44.921875 52.9375 44.921875 47.015625 
Q 44.921875 42.671875 43.015625 38.765625 
Q 41.109375 34.859375 38.125 31.65625 
Q 35.15625 28.46875 30.515625 24.40625 
Q 25.875 20.359375 24.421875 19 
L 13.09375 8.109375 
L 22.703125 8.109375 
Q 29.78125 8.109375 34.546875 8.21875 
Q 39.3125 8.34375 39.59375 8.59375 
Q 40.765625 9.859375 42 17.828125 
L 44.921875 17.828125 
L 42.09375 0 
z
" id="Cmr10-32"/>
     <path d="M 9.28125 0 
L 9.28125 3.515625 
Q 21.78125 3.515625 21.78125 6.6875 
L 21.78125 59.1875 
Q 16.609375 56.6875 8.6875 56.6875 
L 8.6875 60.203125 
Q 20.953125 60.203125 27.203125 66.609375 
L 28.609375 66.609375 
Q 28.953125 66.609375 29.265625 66.328125 
Q 29.59375 66.0625 29.59375 65.71875 
L 29.59375 6.6875 
Q 29.59375 3.515625 42.09375 3.515625 
L 42.09375 0 
z
" id="Cmr10-31"/>
     <path d="M 10.203125 23 
Q 9.375 23 8.828125 23.625 
Q 8.296875 24.265625 8.296875 25 
Q 8.296875 25.734375 8.828125 26.359375 
Q 9.375 27 10.203125 27 
L 67.578125 27 
Q 68.359375 27 68.875 26.359375 
Q 69.390625 25.734375 69.390625 25 
Q 69.390625 24.265625 68.875 23.625 
Q 68.359375 23 67.578125 23 
z
" id="Cmsy10-a1"/>
     <path d="M 7.515625 23 
Q 6.6875 23 6.140625 23.625 
Q 5.609375 24.265625 5.609375 25 
Q 5.609375 25.734375 6.140625 26.359375 
Q 6.6875 27 7.515625 27 
L 36.921875 27 
L 36.921875 56.5 
Q 36.921875 57.28125 37.5 57.78125 
Q 38.09375 58.296875 38.921875 58.296875 
Q 39.65625 58.296875 40.28125 57.78125 
Q 40.921875 57.28125 40.921875 56.5 
L 40.921875 27 
L 70.3125 27 
Q 71.046875 27 71.578125 26.359375 
Q 72.125 25.734375 72.125 25 
Q 72.125 24.265625 71.578125 23.625 
Q 71.046875 23 70.3125 23 
L 40.921875 23 
L 40.921875 -6.5 
Q 40.921875 -7.28125 40.28125 -7.78125 
Q 39.65625 -8.296875 38.921875 -8.296875 
Q 38.09375 -8.296875 37.5 -7.78125 
Q 36.921875 -7.28125 36.921875 -6.5 
L 36.921875 23 
z
" id="Cmr10-2b"/>
     <path d="M 20.125 -1.125 
Q 15.328125 -1.125 11.734375 1.359375 
Q 8.15625 3.859375 6.265625 8.078125 
Q 4.390625 12.3125 4.390625 17 
Q 4.390625 24.125 7.984375 30.390625 
Q 11.578125 36.671875 17.71875 40.421875 
Q 23.875 44.1875 30.90625 44.1875 
Q 35.203125 44.1875 38.40625 41.96875 
Q 41.609375 39.75 41.609375 35.59375 
Q 41.609375 29.828125 37.015625 27.015625 
Q 32.421875 24.21875 26.65625 23.5625 
Q 20.90625 22.90625 13.921875 22.90625 
L 13.625 22.90625 
Q 12.015625 16.9375 12.015625 12.703125 
Q 12.015625 8.25 14.0625 4.875 
Q 16.109375 1.515625 20.3125 1.515625 
Q 26.265625 1.515625 31.75 4.25 
Q 37.25 6.984375 40.71875 11.8125 
Q 41.015625 12.109375 41.5 12.109375 
Q 42 12.109375 42.5 11.546875 
Q 43.015625 10.984375 43.015625 10.5 
Q 43.015625 10.109375 42.828125 9.90625 
Q 39.15625 4.78125 32.953125 1.828125 
Q 26.765625 -1.125 20.125 -1.125 
M 14.203125 25.484375 
Q 20.015625 25.484375 24.953125 26.015625 
Q 29.890625 26.5625 33.890625 28.734375 
Q 37.890625 30.90625 37.890625 35.5 
Q 37.890625 37.359375 36.859375 38.75 
Q 35.84375 40.140625 34.203125 40.875 
Q 32.5625 41.609375 30.8125 41.609375 
Q 26.5625 41.609375 23.171875 39.3125 
Q 19.78125 37.015625 17.578125 33.328125 
Q 15.375 29.640625 14.203125 25.484375 
" id="Cmmi10-65"/>
     <path d="M 7.515625 13.28125 
Q 6.6875 13.28125 6.140625 13.90625 
Q 5.609375 14.546875 5.609375 15.28125 
Q 5.609375 16.109375 6.140625 16.6875 
Q 6.6875 17.28125 7.515625 17.28125 
L 70.3125 17.28125 
Q 71.046875 17.28125 71.578125 16.6875 
Q 72.125 16.109375 72.125 15.28125 
Q 72.125 14.546875 71.578125 13.90625 
Q 71.046875 13.28125 70.3125 13.28125 
z
M 7.515625 32.71875 
Q 6.6875 32.71875 6.140625 33.296875 
Q 5.609375 33.890625 5.609375 34.71875 
Q 5.609375 35.453125 6.140625 36.078125 
Q 6.6875 36.71875 7.515625 36.71875 
L 70.3125 36.71875 
Q 71.046875 36.71875 71.578125 36.078125 
Q 72.125 35.453125 72.125 34.71875 
Q 72.125 33.890625 71.578125 33.296875 
Q 71.046875 32.71875 70.3125 32.71875 
z
" id="Cmr10-3d"/>
    </defs>
    <g transform="translate(65.9375 284.76)scale(0.2 -0.2)">
     <use transform="translate(0.0 0.3125)" xlink:href="#Cmmi10-c1"/>
     <use transform="translate(59.521484375 -16.69375)scale(0.7)" xlink:href="#Cmr10-31"/>
     <use transform="translate(100.898828125 0.3125)" xlink:href="#Cmr10-28"/>
     <use transform="translate(139.7171875 0.3125)" xlink:href="#Cmmi10-78"/>
     <use transform="translate(196.797265625 0.3125)" xlink:href="#Cmr10-29"/>
     <use transform="translate(253.17421875 0.3125)" xlink:href="#Cmr10-3d"/>
     <use transform="translate(348.418359375 0.3125)" xlink:href="#Cmmi10-65"/>
     <use transform="translate(401.206015625 38.5765625)scale(0.7)" xlink:href="#Cmsy10-a1"/>
     <use transform="translate(455.585898438 38.5765625)scale(0.7)" xlink:href="#Cmr10-28"/>
     <use transform="translate(482.75875 38.5765625)scale(0.7)" xlink:href="#Cmmi10-78"/>
     <use transform="translate(535.005820313 38.5765625)scale(0.7)" xlink:href="#Cmr10-2b"/>
     <use transform="translate(601.67671875 38.5765625)scale(0.7)" xlink:href="#Cmr10-31"/>
     <use transform="translate(636.67671875 38.5765625)scale(0.7)" xlink:href="#Cmr10-29"/>
     <use transform="translate(666.97446875 65.36140625)scale(0.49)" xlink:href="#Cmr10-32"/>
    </g>
   </g>
   <g id="text_12">
    <!-- $\phi_2(x) = e^{-2x^2}$ -->
    <g transform="translate(201.2 123.6375)scale(0.2 -0.2)">
     <use transform="translate(0.0 0.3125)" xlink:href="#Cmmi10-c1"/>
     <use transform="translate(59.521484375 -16.69375)scale(0.7)" xlink:href="#Cmr10-32"/>
     <use transform="translate(100.898828125 0.3125)" xlink:href="#Cmr10-28"/>
     <use transform="translate(139.7171875 0.3125)" xlink:href="#Cmmi10-78"/>
     <use transform="translate(196.797265625 0.3125)" xlink:href="#Cmr10-29"/>
     <use transform="translate(253.17421875 0.3125)" xlink:href="#Cmr10-3d"/>
     <use transform="translate(348.418359375 0.3125)" xlink:href="#Cmmi10-65"/>
     <use transform="translate(401.206015625 38.5765625)scale(0.7)" xlink:href="#Cmsy10-a1"/>
     <use transform="translate(455.585898438 38.5765625)scale(0.7)" xlink:href="#Cmr10-32"/>
     <use transform="translate(490.585898438 38.5765625)scale(0.7)" xlink:href="#Cmmi10-78"/>
     <use transform="translate(534.95425 65.36140625)scale(0.49)" xlink:href="#Cmr10-32"/>
    </g>
   </g>
   <g id="text_13">
    <!-- $\phi_3(x) = e^{-2(x-1)^2}$ -->
    <defs>
     <path d="M 9.515625 7.71875 
Q 11.859375 4.296875 15.8125 2.640625 
Q 19.78125 0.984375 24.3125 0.984375 
Q 30.125 0.984375 32.5625 5.9375 
Q 35.015625 10.890625 35.015625 17.1875 
Q 35.015625 20.015625 34.5 22.84375 
Q 33.984375 25.6875 32.765625 28.125 
Q 31.546875 30.5625 29.421875 32.03125 
Q 27.296875 33.5 24.21875 33.5 
L 17.578125 33.5 
Q 16.703125 33.5 16.703125 34.421875 
L 16.703125 35.296875 
Q 16.703125 36.078125 17.578125 36.078125 
L 23.09375 36.53125 
Q 26.609375 36.53125 28.921875 39.15625 
Q 31.25 41.796875 32.328125 45.578125 
Q 33.40625 49.359375 33.40625 52.78125 
Q 33.40625 57.5625 31.15625 60.640625 
Q 28.90625 63.71875 24.3125 63.71875 
Q 20.515625 63.71875 17.046875 62.28125 
Q 13.578125 60.84375 11.53125 57.90625 
Q 11.71875 57.953125 11.859375 57.984375 
Q 12.015625 58.015625 12.203125 58.015625 
Q 14.453125 58.015625 15.96875 56.453125 
Q 17.484375 54.890625 17.484375 52.6875 
Q 17.484375 50.53125 15.96875 48.96875 
Q 14.453125 47.40625 12.203125 47.40625 
Q 10.015625 47.40625 8.453125 48.96875 
Q 6.890625 50.53125 6.890625 52.6875 
Q 6.890625 56.984375 9.46875 60.15625 
Q 12.0625 63.328125 16.140625 64.96875 
Q 20.21875 66.609375 24.3125 66.609375 
Q 27.34375 66.609375 30.703125 65.703125 
Q 34.078125 64.796875 36.8125 63.109375 
Q 39.546875 61.421875 41.28125 58.78125 
Q 43.015625 56.15625 43.015625 52.78125 
Q 43.015625 48.578125 41.140625 45.015625 
Q 39.265625 41.453125 35.984375 38.859375 
Q 32.71875 36.28125 28.8125 35.015625 
Q 33.15625 34.1875 37.0625 31.734375 
Q 40.96875 29.296875 43.328125 25.484375 
Q 45.703125 21.6875 45.703125 17.28125 
Q 45.703125 11.765625 42.671875 7.296875 
Q 39.65625 2.828125 34.71875 0.3125 
Q 29.78125 -2.203125 24.3125 -2.203125 
Q 19.625 -2.203125 14.90625 -0.40625 
Q 10.203125 1.375 7.203125 4.9375 
Q 4.203125 8.5 4.203125 13.484375 
Q 4.203125 15.96875 5.859375 17.625 
Q 7.515625 19.28125 10.015625 19.28125 
Q 11.625 19.28125 12.96875 18.53125 
Q 14.3125 17.78125 15.0625 16.40625 
Q 15.828125 15.046875 15.828125 13.484375 
Q 15.828125 11.03125 14.109375 9.375 
Q 12.40625 7.71875 10.015625 7.71875 
z
" id="Cmr10-33"/>
    </defs>
    <g transform="translate(306.5625 284.76)scale(0.2 -0.2)">
     <use transform="translate(0.0 0.3125)" xlink:href="#Cmmi10-c1"/>
     <use transform="translate(59.521484375 -16.69375)scale(0.7)" xlink:href="#Cmr10-33"/>
     <use transform="translate(100.898828125 0.3125)" xlink:href="#Cmr10-28"/>
     <use transform="translate(139.7171875 0.3125)" xlink:href="#Cmmi10-78"/>
     <use transform="translate(196.797265625 0.3125)" xlink:href="#Cmr10-29"/>
     <use transform="translate(253.17421875 0.3125)" xlink:href="#Cmr10-3d"/>
     <use transform="translate(348.418359375 0.3125)" xlink:href="#Cmmi10-65"/>
     <use transform="translate(401.206015625 38.5765625)scale(0.7)" xlink:href="#Cmsy10-a1"/>
     <use transform="translate(455.585898438 38.5765625)scale(0.7)" xlink:href="#Cmr10-32"/>
     <use transform="translate(490.585898438 38.5765625)scale(0.7)" xlink:href="#Cmr10-28"/>
     <use transform="translate(517.75875 38.5765625)scale(0.7)" xlink:href="#Cmmi10-78"/>
     <use transform="translate(570.005820312 38.5765625)scale(0.7)" xlink:href="#Cmsy10-a1"/>
     <use transform="translate(636.67671875 38.5765625)scale(0.7)" xlink:href="#Cmr10-31"/>
     <use transform="translate(671.67671875 38.5765625)scale(0.7)" xlink:href="#Cmr10-29"/>
     <use transform="translate(701.97446875 65.36140625)scale(0.49)" xlink:href="#Cmr10-32"/>
    </g>
   </g>
  </g>
 </g>
 <defs>
  <clipPath id="pa840827038">
   <rect height="390.6" width="390.6" x="63.0" y="50.4"/>
  </clipPath>
 </defs>
</svg>
